<svg width="149" height="57" viewBox="0 0 149 57" fill="none" xmlns="http://www.w3.org/2000/svg">
<rect x="0.412109" y="0.185547" width="148.587" height="56" rx="28" fill="#FE570B"/>
<path d="M88.459 27.9766H129.954" stroke="white" stroke-width="3.8069"/>
<path d="M116.197 13.3828V13.3828C116.451 19.8306 120.77 25.4064 126.949 27.2635L129.32 27.9759" stroke="white" stroke-width="3.8069"/>
<path d="M116.197 42.7344V42.7344C116.451 36.2717 120.74 30.6662 126.912 28.7316L129.32 27.9767" stroke="white" stroke-width="3.8069"/>
<rect x="6.80273" y="7.81445" width="63.9082" height="40.7415" rx="20.3708" fill="#FAFBFB"/>
<path d="M43.5493 22.0187C41.5628 24.6811 40.5696 26.0123 39.2552 26.229C38.8994 26.2876 38.5364 26.2876 38.1806 26.229C36.8662 26.0123 35.8729 24.6811 33.8865 22.0187C31.0757 18.2515 29.6703 16.3678 30.1033 14.8069C30.2181 14.3932 30.4124 14.0058 30.6753 13.6665C31.6674 12.386 34.0176 12.386 38.7179 12.386C43.4182 12.386 45.7683 12.386 46.7605 13.6665C47.0234 14.0058 47.2177 14.3932 47.3325 14.8069C47.7655 16.3678 46.3601 18.2515 43.5493 22.0187Z" fill="#FE570B"/>
<path d="M43.2172 34.6395C41.2308 31.9771 40.2376 30.6459 38.9232 30.4292C38.5674 30.3706 38.2043 30.3706 37.8485 30.4292C36.5341 30.6459 35.5409 31.9771 33.5545 34.6395C30.7436 38.4067 29.3382 40.2904 29.7713 41.8513C29.886 42.265 30.0803 42.6524 30.3433 42.9917C31.3354 44.2722 33.6855 44.2722 38.3859 44.2722C43.0862 44.2722 45.4363 44.2722 46.4284 42.9917C46.6914 42.6524 46.8857 42.265 47.0004 41.8513C47.4335 40.2904 46.0281 38.4067 43.2172 34.6395Z" fill="#FE570B"/>
<path d="M31.2382 33.0969C34.0445 31.3195 35.4476 30.4308 35.764 29.1368C35.8496 28.7865 35.8773 28.4246 35.846 28.0653C35.7304 26.7382 34.4789 25.6462 31.976 23.4623C28.4344 20.372 26.6635 18.8269 25.0741 19.1395C24.6528 19.2223 24.2518 19.3865 23.8933 19.6227C22.5408 20.5142 22.3613 22.8575 22.0024 27.544C21.6435 32.2306 21.4641 34.5739 22.6651 35.6609C22.9834 35.949 23.3548 36.1723 23.7585 36.3183C25.2818 36.8693 27.2673 35.6118 31.2382 33.0969Z" fill="#FE570B"/>
<path d="M46.2716 33.4269C43.4653 31.6496 42.0621 30.7609 41.7458 29.4669C41.6601 29.1166 41.6324 28.7546 41.6637 28.3954C41.7794 27.0683 43.0308 25.9763 45.5338 23.7924C49.0754 20.7021 50.8462 19.157 52.4357 19.4695C52.8569 19.5524 53.258 19.7165 53.6165 19.9528C54.969 20.8442 55.1484 23.1875 55.5073 27.8741C55.8662 32.5607 56.0457 34.904 54.8447 35.991C54.5264 36.2791 54.155 36.5024 53.7512 36.6484C52.2279 37.1994 50.2425 35.9419 46.2716 33.4269Z" fill="#FE570B"/>
</svg>
