<svg width="121" height="119" viewBox="0 0 121 119" fill="none" xmlns="http://www.w3.org/2000/svg">
<circle cx="60.6393" cy="59.6393" r="35.6393" fill="#FE570B"/>
<path d="M56.3141 63.9199C56.3141 64.8427 56.4626 65.6064 56.7596 66.211C57.3111 67.3247 58.3135 67.8816 59.7666 67.8816C60.6576 67.8816 61.4319 67.5793 62.0896 66.9747C62.7578 66.3595 63.0919 65.4791 63.0919 64.3335C63.0919 62.8167 62.4767 61.8038 61.2463 61.2946C60.5463 61.0083 59.4431 60.8651 57.9369 60.8651V57.6193C59.4113 57.5981 60.4402 57.4549 61.0236 57.1898C62.0312 56.7443 62.5351 55.8427 62.5351 54.485C62.5351 53.6046 62.2752 52.8886 61.7554 52.3371C61.2463 51.7855 60.525 51.5097 59.5916 51.5097C58.5203 51.5097 57.7301 51.8492 57.221 52.528C56.7224 53.2068 56.4838 54.1137 56.505 55.2487H52.2728C52.3153 54.1031 52.5115 53.0159 52.8615 51.987C53.2328 51.0855 53.8161 50.2528 54.6117 49.4891C55.2057 48.9482 55.911 48.5345 56.7278 48.2481C57.5445 47.9617 58.5468 47.8185 59.7348 47.8185C61.9411 47.8185 63.7177 48.3913 65.0648 49.5368C66.4225 50.6718 67.1013 52.1992 67.1013 54.119C67.1013 55.4767 66.6983 56.6223 65.8922 57.5557C65.383 58.1391 64.8527 58.5368 64.3011 58.749C64.7148 58.749 65.3088 59.1043 66.0831 59.815C67.2392 60.8863 67.8173 62.35 67.8173 64.2062C67.8173 66.1579 67.1385 67.8763 65.7808 69.3612C64.4337 70.8356 62.4343 71.5728 59.7826 71.5728C56.5156 71.5728 54.2457 70.5068 52.9729 68.3748C52.3047 67.2398 51.9334 65.7549 51.8592 63.9199H56.3141Z" fill="white"/>
<path d="M120.324 50.4042C120.324 71.3622 111.329 85.6024 99.1366 95.1249C86.9247 104.663 71.4887 109.478 58.6395 111.506C48.589 113.093 40.039 114.01 32.8391 113.95C25.6377 113.89 19.8234 112.853 15.2226 110.563C6.0829 106.013 1.52789 96.4001 0.668471 78.8907C-0.576506 53.5261 5.55579 33.9289 16.1684 20.6837C26.7763 7.44432 41.8923 0.509134 58.7191 0.509134C75.6069 0.509134 91.0199 5.1434 102.198 13.6913C113.365 22.2302 120.324 34.6853 120.324 50.4042Z" stroke="white" stroke-width="1.01827"/>
<path d="M120.49 61.0965C120.49 84.9241 113.515 99.1265 102.353 107.401C91.1578 115.7 75.6427 118.119 58.3752 118.119C41.1865 118.119 27.3803 112.935 17.6539 103.436C7.92582 93.9355 2.22507 80.067 1.3516 62.5985C0.0823707 37.2151 5.80965 22.6503 16.0051 14.3974C26.2341 6.11728 41.0909 4.07359 58.3752 4.07359C92.7215 4.07359 120.49 29.6434 120.49 61.0965Z" stroke="white" stroke-width="1.01827"/>
</svg>
