<svg width="121" height="119" viewBox="0 0 121 119" fill="none" xmlns="http://www.w3.org/2000/svg">
<circle cx="60.6393" cy="59.6393" r="35.6393" fill="#FE570B"/>
<path d="M52.0183 71C52.0607 69.3453 52.416 67.8338 53.0843 66.4655C53.7313 64.9275 55.2587 63.2994 57.6665 61.581C59.756 60.0854 61.1084 59.0141 61.7236 58.3671C62.6676 57.3595 63.1397 56.2563 63.1397 55.0578C63.1397 54.0819 62.8692 53.2705 62.3282 52.6235C61.7873 51.9764 61.013 51.6529 60.0053 51.6529C58.6264 51.6529 57.6877 52.1674 57.1892 53.1962C56.9028 53.7902 56.7331 54.7342 56.68 56.0283H52.2728C52.3471 54.066 52.7024 52.4803 53.3388 51.2711C54.548 48.9694 56.6959 47.8185 59.7826 47.8185C62.2222 47.8185 64.1632 48.4974 65.6058 49.855C67.0483 51.2021 67.7696 52.9894 67.7696 55.2169C67.7696 56.9246 67.2605 58.4414 66.2422 59.7672C65.5739 60.6476 64.4761 61.6288 62.9487 62.7107L61.1349 63.9994C60 64.8055 59.2204 65.3889 58.7961 65.7496C58.3824 66.1102 58.0324 66.5292 57.746 67.0065H67.8173V71H52.0183Z" fill="white"/>
<path d="M120.324 50.4042C120.324 71.3622 111.329 85.6024 99.1366 95.1249C86.9247 104.663 71.4887 109.478 58.6395 111.506C48.589 113.093 40.039 114.01 32.8391 113.95C25.6377 113.89 19.8234 112.853 15.2226 110.563C6.0829 106.013 1.52789 96.4001 0.668471 78.8907C-0.576506 53.5261 5.55579 33.9289 16.1684 20.6837C26.7763 7.44432 41.8923 0.509134 58.7191 0.509134C75.6069 0.509134 91.0199 5.1434 102.198 13.6913C113.365 22.2302 120.324 34.6853 120.324 50.4042Z" stroke="white" stroke-width="1.01827"/>
<path d="M120.49 61.0965C120.49 84.9241 113.515 99.1265 102.353 107.401C91.1578 115.7 75.6427 118.119 58.3752 118.119C41.1865 118.119 27.3803 112.935 17.6539 103.436C7.92582 93.9355 2.22507 80.067 1.3516 62.5985C0.0823707 37.2151 5.80965 22.6503 16.0051 14.3974C26.2341 6.11728 41.0909 4.07359 58.3752 4.07359C92.7215 4.07359 120.49 29.6434 120.49 61.0965Z" stroke="white" stroke-width="1.01827"/>
</svg>
