<svg width="121" height="119" viewBox="0 0 121 119" fill="none" xmlns="http://www.w3.org/2000/svg">
<circle cx="60.6393" cy="59.6393" r="35.6393" fill="#FE570B"/>
<path d="M53.2593 55.0896V52.003C54.6912 51.9393 55.6936 51.8438 56.2664 51.7166C57.1785 51.515 57.921 51.112 58.4938 50.5074C58.8863 50.0937 59.1833 49.5421 59.3848 48.8527C59.5015 48.439 59.5598 48.1314 59.5598 47.9299H63.3306V71H58.6847V55.0896H53.2593Z" fill="white"/>
<path d="M120.324 50.4042C120.324 71.3622 111.329 85.6024 99.1366 95.1249C86.9247 104.663 71.4887 109.478 58.6395 111.506C48.589 113.093 40.039 114.01 32.8391 113.95C25.6377 113.89 19.8234 112.853 15.2226 110.563C6.0829 106.013 1.52789 96.4001 0.668471 78.8907C-0.576506 53.5261 5.55579 33.9289 16.1684 20.6837C26.7763 7.44432 41.8923 0.509134 58.7191 0.509134C75.6069 0.509134 91.0199 5.1434 102.198 13.6913C113.365 22.2302 120.324 34.6853 120.324 50.4042Z" stroke="white" stroke-width="1.01827"/>
<path d="M120.49 61.0965C120.49 84.9241 113.515 99.1265 102.353 107.401C91.1578 115.7 75.6427 118.119 58.3752 118.119C41.1865 118.119 27.3803 112.935 17.6539 103.436C7.92582 93.9355 2.22507 80.067 1.3516 62.5985C0.0823707 37.2151 5.80965 22.6503 16.0051 14.3974C26.2341 6.11728 41.0909 4.07359 58.3752 4.07359C92.7215 4.07359 120.49 29.6434 120.49 61.0965Z" stroke="white" stroke-width="1.01827"/>
</svg>
