<svg width="729" height="547" viewBox="0 0 729 547" fill="none" xmlns="http://www.w3.org/2000/svg">
<path style="mix-blend-mode:overlay" fill-rule="evenodd" clip-rule="evenodd" d="M364.376 126.02L0 336.358L364.562 546.882L729 336.482L364.376 126.02ZM364.562 514.675L391.257 530.035L364.562 545.458L337.929 530.035L364.562 514.675ZM392.434 498.571L419.129 513.994L392.496 529.354L365.801 513.932L392.434 498.571ZM420.367 482.468L447.062 497.89L420.367 513.25L393.734 497.89L420.367 482.468ZM448.301 466.302L474.934 481.724L448.301 497.085L421.606 481.724L448.301 466.302ZM476.235 450.137L502.929 465.559L476.235 480.981L449.602 465.559L476.235 450.137ZM504.168 434.033L530.801 449.393L504.168 464.816L477.473 449.393L504.168 434.033ZM532.102 417.929L558.797 433.29L532.102 448.712L505.469 433.29L532.102 417.929ZM560.036 401.826L586.668 417.186L560.036 432.608L533.341 417.186L560.036 401.826ZM587.969 385.722L614.664 401.144L587.969 416.505L561.336 401.082L587.969 385.722ZM615.903 369.618L642.536 385.041L615.903 400.401L589.208 385.041L615.903 369.618ZM643.836 353.453L670.531 368.875L643.836 384.235L617.203 368.875L643.836 353.453ZM671.77 337.287L698.403 352.709L671.77 368.132L645.075 352.709L671.77 337.287ZM699.704 321.183L726.399 336.544L699.766 351.966L673.071 336.544L699.704 321.183ZM336.566 498.571L363.261 513.994L336.566 529.354L309.933 513.932L336.566 498.571ZM364.5 482.468L391.133 497.89L364.5 513.25L337.805 497.89L364.5 482.468ZM392.434 466.302L419.129 481.724L392.434 497.085L365.801 481.724L392.434 466.302ZM420.367 450.137L447 465.559L420.367 480.981L393.672 465.559L420.367 450.137ZM448.301 434.033L474.996 449.393L448.301 464.816L421.668 449.393L448.301 434.033ZM476.235 417.929L502.868 433.29L476.235 448.712L449.54 433.29L476.235 417.929ZM504.168 401.826L530.863 417.248L504.168 432.608L477.535 417.186L504.168 401.826ZM532.102 385.722L558.735 401.144L532.102 416.505L505.407 401.082L532.102 385.722ZM560.036 369.618L586.73 385.041L560.036 400.401L533.403 385.041L560.036 369.618ZM587.969 353.453L614.602 368.875L587.969 384.235L561.274 368.875L587.969 353.453ZM615.903 337.287L642.598 352.709L615.965 368.132L589.27 352.709L615.903 337.287ZM643.836 321.183L670.469 336.544L643.836 351.966L617.142 336.544L643.836 321.183ZM671.77 305.08L698.465 320.44L671.832 335.863L645.137 320.44L671.77 305.08ZM308.633 482.468L335.328 497.89L308.633 513.25L282 497.89L308.633 482.468ZM336.566 466.302L363.199 481.724L336.566 497.085L309.871 481.724L336.566 466.302ZM364.5 450.137L391.195 465.559L364.5 480.981L337.867 465.559L364.5 450.137ZM392.434 434.033L419.067 449.393L392.434 464.816L365.739 449.393L392.434 434.033ZM420.367 417.929L447.062 433.29L420.367 448.712L393.734 433.29L420.367 417.929ZM448.301 401.826L474.934 417.248L448.301 432.608L421.606 417.186L448.301 401.826ZM476.235 385.722L502.929 401.144L476.235 416.505L449.602 401.082L476.235 385.722ZM504.168 369.618L530.801 385.041L504.168 400.401L477.473 385.041L504.168 369.618ZM532.102 353.453L558.797 368.875L532.164 384.235L505.469 368.875L532.102 353.453ZM560.036 337.287L586.668 352.709L560.036 368.132L533.341 352.709L560.036 337.287ZM587.969 321.183L614.664 336.544L588.031 351.966L561.336 336.544L587.969 321.183ZM615.903 305.08L642.598 320.44L615.903 335.863L589.208 320.44L615.903 305.08ZM643.836 288.976L670.531 304.398L643.898 319.759L617.203 304.337L643.836 288.976ZM280.699 466.364L307.394 481.786L280.699 497.147L254.066 481.786L280.699 466.364ZM308.633 450.198L335.266 465.621L308.633 481.043L281.938 465.621L308.633 450.198ZM336.566 434.095L363.261 449.455L336.566 464.878L309.933 449.455L336.566 434.095ZM364.5 417.991L391.133 433.352L364.5 448.774L337.805 433.352L364.5 417.991ZM392.434 401.888L419.129 417.31L392.434 432.67L365.801 417.248L392.434 401.888ZM420.367 385.784L447 401.206L420.367 416.567L393.672 401.144L420.367 385.784ZM448.301 369.68L474.996 385.103L448.363 400.463L421.668 385.103L448.301 369.68ZM476.235 353.515L502.868 368.937L476.235 384.297L449.54 368.937L476.235 353.515ZM504.168 337.349L530.863 352.771L504.23 368.194L477.535 352.771L504.168 337.349ZM532.102 321.245L558.797 336.606L532.102 352.028L505.407 336.606L532.102 321.245ZM560.036 305.142L586.73 320.502L560.097 335.924L533.403 320.502L560.036 305.142ZM587.969 289.038L614.664 304.46L587.969 319.821L561.274 304.398L587.969 289.038ZM615.903 272.934L642.598 288.357L615.965 303.717L589.27 288.357L615.903 272.934ZM252.765 450.26L279.46 465.683L252.765 481.105L226.132 465.683L252.765 450.26ZM280.699 434.157L307.332 449.517L280.699 464.939L254.004 449.517L280.699 434.157ZM308.633 418.053L335.328 433.414L308.633 448.836L282 433.414L308.633 418.053ZM336.566 401.949L363.199 417.372L336.566 432.732L309.871 417.31L336.566 401.949ZM364.5 385.846L391.195 401.268L364.562 416.629L337.867 401.268L364.5 385.846ZM392.434 369.68L419.067 385.103L392.434 400.463L365.739 385.103L392.434 369.68ZM420.367 353.515L447.062 368.937L420.429 384.297L393.734 368.937L420.367 353.515ZM448.301 337.349L474.996 352.771L448.301 368.194L421.606 352.771L448.301 337.349ZM476.235 321.245L502.929 336.606L476.297 352.028L449.602 336.606L476.235 321.245ZM504.168 305.142L530.863 320.502L504.168 335.924L477.473 320.502L504.168 305.142ZM532.102 289.038L558.797 304.46L532.164 319.821L505.469 304.398L532.102 289.038ZM560.036 272.934L586.73 288.357L560.036 303.717L533.341 288.357L560.036 272.934ZM587.969 256.769L614.664 272.191L588.031 287.552L561.336 272.191L587.969 256.769ZM224.832 434.157L251.527 449.517L224.832 464.939L198.199 449.517L224.832 434.157ZM252.765 418.053L279.398 433.414L252.765 448.836L226.07 433.414L252.765 418.053ZM280.699 401.949L307.394 417.372L280.761 432.732L254.066 417.31L280.699 401.949ZM308.633 385.846L335.266 401.268L308.633 416.629L281.938 401.268L308.633 385.846ZM336.566 369.68L363.261 385.103L336.628 400.463L309.933 385.103L336.566 369.68ZM364.5 353.515L391.195 368.937L364.5 384.297L337.805 368.937L364.5 353.515ZM392.434 337.349L419.129 352.771L392.496 368.194L365.801 352.771L392.434 337.349ZM420.367 321.245L447.062 336.606L420.367 352.028L393.672 336.606L420.367 321.245ZM448.301 305.142L474.996 320.502L448.363 335.924L421.668 320.502L448.301 305.142ZM476.235 289.038L502.929 304.46L476.235 319.821L449.54 304.398L476.235 289.038ZM504.168 272.934L530.863 288.357L504.23 303.717L477.535 288.357L504.168 272.934ZM532.102 256.769L558.797 272.191L532.102 287.552L505.407 272.191L532.102 256.769ZM560.036 240.603L586.73 256.026L560.097 271.448L533.403 256.026L560.036 240.603ZM196.898 417.991L223.593 433.352L196.898 448.774L170.265 433.352L196.898 417.991ZM224.832 401.888L251.465 417.31L224.832 432.67L198.137 417.248L224.832 401.888ZM252.765 385.784L279.46 401.206L252.827 416.567L226.132 401.206L252.765 385.784ZM280.699 369.618L307.332 385.041L280.699 400.401L254.004 385.041L280.699 369.618ZM308.633 353.453L335.328 368.875L308.695 384.235L282 368.875L308.633 353.453ZM336.566 337.287L363.261 352.709L336.566 368.132L309.871 352.709L336.566 337.287ZM364.5 321.183L391.195 336.544L364.562 351.966L337.867 336.544L364.5 321.183ZM392.434 305.08L419.129 320.44L392.434 335.863L365.739 320.44L392.434 305.08ZM420.367 288.976L447.062 304.398L420.429 319.759L393.734 304.337L420.367 288.976ZM448.301 272.872L474.996 288.295L448.301 303.655L421.606 288.295L448.301 272.872ZM476.235 256.707L502.929 272.129L476.297 287.49L449.602 272.129L476.235 256.707ZM504.168 240.541L530.863 255.964L504.168 271.386L477.535 255.964L504.168 240.541ZM532.04 224.376L558.735 239.798L532.102 255.22L505.407 239.798L532.04 224.376ZM168.903 401.764L195.597 417.186L168.964 432.546L142.27 417.124L168.903 401.764ZM196.836 385.66L223.469 401.082L196.836 416.443L170.141 401.082L196.836 385.66ZM224.77 369.494L251.465 384.917L224.832 400.277L198.137 384.917L224.77 369.494ZM252.703 353.329L279.398 368.751L252.703 384.112L226.009 368.751L252.703 353.329ZM280.637 337.163L307.332 352.586L280.699 368.008L254.004 352.586L280.637 337.163ZM308.571 321.06L335.266 336.42L308.571 351.842L281.876 336.42L308.571 321.06ZM336.504 304.956L363.199 320.316L336.566 335.739L309.871 320.316L336.504 304.956ZM364.438 288.852L391.133 304.275L364.438 319.635L337.743 304.213L364.438 288.852ZM392.372 272.749L419.067 288.171L392.434 303.531L365.739 288.171L392.372 272.749ZM420.305 256.583L447 272.005L420.305 287.366L393.672 272.005L420.305 256.583ZM448.177 240.417L474.872 255.84L448.239 271.262L421.544 255.84L448.177 240.417ZM476.111 224.314L502.806 239.674L476.111 255.097L449.478 239.674L476.111 224.314ZM504.044 208.21L530.677 223.571L504.044 238.993L477.349 223.571L504.044 208.21ZM140.907 385.598L167.602 401.02L140.969 416.381L114.274 401.02L140.907 385.598ZM168.841 369.432L195.536 384.855L168.841 400.215L142.146 384.855L168.841 369.432ZM196.774 353.267L223.469 368.689L196.836 384.05L170.141 368.689L196.774 353.267ZM224.708 337.101L251.403 352.524L224.708 367.946L198.013 352.524L224.708 337.101ZM252.642 320.998L279.336 336.358L252.703 351.78L226.009 336.358L252.642 320.998ZM280.575 304.894L307.27 320.254L280.575 335.677L253.88 320.254L280.575 304.894ZM308.509 288.79L335.204 304.213L308.571 319.573L281.876 304.151L308.509 288.79ZM336.442 272.687L363.137 288.109L336.442 303.469L309.81 288.109L336.442 272.687ZM364.314 256.521L391.009 271.943L364.376 287.304L337.681 271.943L364.314 256.521ZM392.248 240.355L418.943 255.778L392.248 271.2L365.615 255.778L392.248 240.355ZM420.181 224.252L446.814 239.612L420.181 255.035L393.487 239.612L420.181 224.252ZM448.115 208.148L474.81 223.509L448.115 238.931L421.482 223.509L448.115 208.148ZM476.049 192.045L502.682 207.405L476.049 222.827L449.354 207.405L476.049 192.045ZM112.911 369.432L139.606 384.855L112.973 400.215L86.2784 384.855L112.911 369.432ZM140.845 353.267L167.54 368.689L140.845 384.112L114.15 368.689L140.845 353.267ZM168.779 337.101L195.474 352.524L168.841 367.946L142.146 352.524L168.779 337.101ZM196.712 320.998L223.407 336.358L196.712 351.78L170.017 336.358L196.712 320.998ZM224.646 304.894L251.341 320.254L224.708 335.677L198.013 320.254L224.646 304.894ZM252.58 288.79L279.275 304.213L252.58 319.573L225.947 304.151L252.58 288.79ZM280.451 272.687L307.146 288.109L280.513 303.469L253.818 288.109L280.451 272.687ZM308.385 256.521L335.08 271.943L308.385 287.304L281.752 271.943L308.385 256.521ZM336.319 240.355L362.952 255.778L336.319 271.2L309.624 255.778L336.319 240.355ZM364.252 224.252L390.947 239.612L364.252 255.035L337.619 239.612L364.252 224.252ZM392.186 208.148L418.819 223.509L392.186 238.931L365.491 223.509L392.186 208.148ZM420.12 192.045L446.814 207.405L420.12 222.827L393.487 207.405L420.12 192.045ZM448.053 175.941L474.686 191.363L448.053 206.724L421.358 191.301L448.053 175.941ZM84.9158 353.329L111.611 368.751L84.9777 384.173L58.2828 368.751L84.9158 353.329ZM112.849 337.163L139.544 352.586L112.849 368.008L86.1545 352.586L112.849 337.163ZM140.783 321.06L167.478 336.42L140.845 351.842L114.15 336.42L140.783 321.06ZM168.717 304.956L195.412 320.316L168.717 335.739L142.084 320.316L168.717 304.956ZM196.588 288.852L223.283 304.275L196.65 319.635L169.956 304.213L196.588 288.852ZM224.522 272.749L251.217 288.171L224.522 303.531L197.889 288.171L224.522 272.749ZM252.456 256.583L279.089 272.005L252.456 287.366L225.761 272.005L252.456 256.583ZM280.389 240.417L307.084 255.84L280.389 271.262L253.756 255.84L280.389 240.417ZM308.323 224.314L334.956 239.674L308.323 255.097L281.628 239.674L308.323 224.314ZM336.257 208.21L362.952 223.571L336.257 238.993L309.624 223.571L336.257 208.21ZM364.19 192.106L390.823 207.467L364.19 222.889L337.495 207.467L364.19 192.106ZM392.124 176.003L418.819 191.425L392.124 206.786L365.491 191.363L392.124 176.003ZM420.058 159.899L446.691 175.321L420.058 190.682L393.363 175.321L420.058 159.899ZM56.9202 337.225L83.6151 352.647L56.9821 368.07L30.2872 352.647L56.9202 337.225ZM84.8539 321.121L111.549 336.482L84.8539 351.904L58.2209 336.482L84.8539 321.121ZM112.726 305.018L139.42 320.378L112.788 335.801L86.0926 320.378L112.726 305.018ZM140.659 288.914L167.354 304.337L140.659 319.697L114.026 304.275L140.659 288.914ZM168.593 272.811L195.226 288.233L168.593 303.593L141.898 288.233L168.593 272.811ZM196.527 256.645L223.221 272.067L196.527 287.428L169.894 272.067L196.527 256.645ZM224.46 240.479L251.093 255.902L224.46 271.324L197.765 255.902L224.46 240.479ZM252.394 224.376L279.089 239.736L252.394 255.158L225.761 239.736L252.394 224.376ZM280.327 208.272L306.96 223.632L280.327 239.055L253.633 223.632L280.327 208.272ZM308.261 192.168L334.956 207.529L308.261 222.951L281.628 207.529L308.261 192.168ZM336.195 176.065L362.828 191.487L336.195 206.847L309.5 191.425L336.195 176.065ZM364.128 159.961L390.823 175.383L364.128 190.744L337.495 175.383L364.128 159.961ZM392.062 143.795L418.695 159.218L392.062 174.578L365.367 159.218L392.062 143.795ZM28.9246 321.183L55.6196 336.544L28.9866 351.966L2.29169 336.544L28.9246 321.183ZM56.8583 305.08L83.5532 320.44L56.8583 335.863L30.2253 320.44L56.8583 305.08ZM84.73 288.976L111.425 304.398L84.7919 319.759L58.097 304.337L84.73 288.976ZM112.664 272.872L139.359 288.295L112.664 303.655L86.0307 288.295L112.664 272.872ZM140.597 256.707L167.23 272.129L140.597 287.49L113.902 272.129L140.597 256.707ZM168.531 240.541L195.226 255.964L168.531 271.386L141.898 255.964L168.531 240.541ZM196.465 224.438L223.098 239.798L196.465 255.22L169.77 239.798L196.465 224.438ZM224.398 208.334L251.093 223.694L224.398 239.117L197.765 223.694L224.398 208.334ZM252.332 192.23L278.965 207.653L252.332 223.013L225.637 207.591L252.332 192.23ZM280.266 176.127L306.96 191.549L280.266 206.909L253.633 191.487L280.266 176.127ZM308.199 160.023L334.832 175.445L308.199 190.806L281.504 175.445L308.199 160.023ZM336.133 143.857L362.828 159.28L336.195 174.64L309.5 159.28L336.133 143.857ZM364.066 127.692L390.699 143.114L364.066 158.537L337.372 143.114L364.066 127.692Z" fill="url(#paint0_radial_193_1160)"/>
<path style="mix-blend-mode:color-dodge" d="M158.003 330.719C137.192 342.735 137.192 362.245 158.003 374.261C178.814 386.277 212.569 386.277 233.38 374.261C254.191 362.245 254.191 342.735 233.38 330.719C212.569 318.703 178.814 318.703 158.003 330.719Z" fill="url(#paint1_radial_193_1160)"/>
<path style="mix-blend-mode:color-dodge" d="M229.106 371.287C208.295 383.303 208.295 402.813 229.106 414.829C249.917 426.845 283.673 426.845 304.484 414.829C325.295 402.813 325.295 383.303 304.484 371.287C283.673 359.271 249.917 359.271 229.106 371.287Z" fill="url(#paint2_radial_193_1160)"/>
<path style="mix-blend-mode:color-dodge" d="M297.485 408.449C276.674 420.465 276.674 439.913 297.485 451.991C318.296 464.007 352.052 464.007 372.863 451.991C393.673 439.913 393.673 420.465 372.863 408.449C352.052 396.434 318.296 396.434 297.485 408.449Z" fill="url(#paint3_radial_193_1160)"/>
<path style="mix-blend-mode:color-dodge" d="M158.003 330.719C137.192 342.735 137.192 362.245 158.003 374.261C178.814 386.277 212.569 386.277 233.38 374.261C254.191 362.245 254.191 342.735 233.38 330.719C212.569 318.703 178.814 318.703 158.003 330.719Z" fill="url(#paint4_radial_193_1160)"/>
<path style="mix-blend-mode:color-dodge" d="M229.106 371.287C208.295 383.303 208.295 402.813 229.106 414.829C249.917 426.845 283.673 426.845 304.484 414.829C325.295 402.813 325.295 383.303 304.484 371.287C283.673 359.271 249.917 359.271 229.106 371.287Z" fill="url(#paint5_radial_193_1160)"/>
<path style="mix-blend-mode:color-dodge" d="M297.485 408.449C276.674 420.465 276.674 439.913 297.485 451.991C318.296 464.007 352.052 464.007 372.863 451.991C393.673 439.913 393.673 420.465 372.863 408.449C352.052 396.434 318.296 396.434 297.485 408.449Z" fill="url(#paint6_radial_193_1160)"/>
<g style="mix-blend-mode:screen">
<g style="mix-blend-mode:screen">
<path fill-rule="evenodd" clip-rule="evenodd" d="M363.513 460.478C366.61 460.478 369.954 459.735 372.494 458.249L435.112 422.077C437.652 420.653 439.076 418.671 439.076 416.689C439.076 415.078 438.085 413.592 436.227 412.539L224.836 290.461C220.748 288.107 213.563 288.417 208.856 291.142L146.299 327.313C143.76 328.738 142.273 330.72 142.273 332.64C142.273 334.312 143.326 335.799 145.123 336.852L356.514 458.868C358.372 459.983 360.912 460.478 363.513 460.478ZM217.899 289.47C220.376 289.47 222.792 289.965 224.526 291.018L435.917 413.035C437.59 414.025 438.457 415.326 438.457 416.689C438.457 418.485 437.156 420.219 434.803 421.582L372.184 457.753C367.663 460.354 360.788 460.664 356.824 458.372L145.432 336.356C143.822 335.365 142.893 334.065 142.893 332.64C142.893 330.906 144.255 329.172 146.547 327.809L209.166 291.638C211.643 290.213 214.864 289.47 217.899 289.47Z" fill="#FCA730"/>
</g>
<g style="mix-blend-mode:screen">
<path d="M484.351 484.51C487.386 484.51 490.421 483.766 493.084 482.156L529.255 461.345C534.706 458.186 537.988 452.488 537.988 446.171C537.988 439.853 534.706 434.155 529.255 430.996L508.258 418.856C508.135 418.794 507.949 418.856 507.887 418.98C507.825 419.104 507.825 419.29 508.011 419.414L528.945 431.491C534.21 434.588 537.369 440.039 537.369 446.171C537.369 452.302 534.21 457.753 528.945 460.788L492.836 481.661C487.633 484.695 481.13 484.695 475.927 481.661L403.461 439.977C403.337 439.915 403.151 439.915 403.089 440.101C402.965 440.225 403.027 440.41 403.151 440.472L475.618 482.218C478.343 483.766 481.316 484.51 484.351 484.51Z" fill="#FCA730"/>
</g>
<g style="mix-blend-mode:screen">
<path d="M177.328 309.972C177.451 309.972 177.513 309.91 177.575 309.848C177.699 309.725 177.637 309.539 177.513 309.415L128.645 281.234C123.318 278.199 120.16 272.686 120.16 266.616C120.16 260.485 123.318 254.972 128.583 251.937L165.683 230.445C170.886 227.472 177.328 227.472 182.53 230.383L197.953 239.178C198.076 239.24 198.262 239.178 198.324 239.054C198.448 238.869 198.386 238.683 198.2 238.621L182.84 229.888C177.451 226.853 170.762 226.853 165.436 229.95L128.335 251.442C122.823 254.601 119.602 260.237 119.602 266.616C119.602 272.934 122.823 278.57 128.335 281.729L177.204 309.972C177.245 309.972 177.286 309.972 177.328 309.972Z" fill="#FCA730"/>
</g>
</g>
<path d="M283.113 212.295L209.036 169.496L214.053 176.929L195.472 177.548L269.549 220.408L269.859 210.003L283.113 212.295Z" fill="url(#paint7_linear_193_1160)"/>
<path d="M269.549 220.407V306.004L195.472 263.144V177.547L269.549 220.407Z" fill="url(#paint8_linear_193_1160)"/>
<path d="M269.55 306.005L288.131 295.351L278.84 289.963L269.55 306.005Z" fill="url(#paint9_linear_193_1160)"/>
<path d="M269.859 210.004L283.114 212.296L288.131 295.353L278.84 289.965L269.55 306.006V220.409L269.859 210.004Z" fill="url(#paint10_linear_193_1160)"/>
<path d="M209.036 169.496V177.114L214.053 176.929L209.036 169.496Z" fill="url(#paint11_linear_193_1160)"/>
<path d="M214.053 176.928V188.262L195.472 177.547L214.053 176.928Z" fill="url(#paint12_linear_193_1160)"/>
<path d="M233.686 212.356C233.686 214.152 234.987 216.32 236.535 217.249C238.084 218.116 239.322 217.435 239.322 215.638C239.322 213.842 238.084 211.674 236.535 210.745C234.987 209.878 233.686 210.56 233.686 212.356Z" fill="#3A55CA"/>
<path d="M216.282 202.323C216.282 204.119 217.582 206.287 219.131 207.216C220.679 208.083 221.918 207.339 221.918 205.543C221.918 203.809 220.679 201.579 219.131 200.712C217.582 199.845 216.282 200.526 216.282 202.323Z" fill="#3A55CA"/>
<path d="M227.988 243.264C230.527 244.75 232.633 245.06 234.12 244.131C237.96 241.715 237.712 232.177 237.402 222.081C237.34 219.542 237.216 216.879 237.216 214.401C237.216 213.968 236.907 213.41 236.535 213.162C236.102 212.915 235.792 213.1 235.792 213.596C235.792 216.073 235.854 218.737 235.916 221.276C236.225 230.629 236.473 240.229 233.067 242.335C231.828 243.14 230.156 242.892 227.988 241.591C225.758 240.291 224.086 238.618 222.785 236.389C219.441 230.381 219.688 221.152 219.998 212.233C220.06 209.694 220.122 207.093 220.122 204.553C220.122 204.12 219.812 203.562 219.441 203.314C219.007 203.067 218.697 203.252 218.697 203.748C218.697 206.225 218.635 208.827 218.573 211.304C218.264 221.028 217.954 230.195 221.794 236.946C223.281 239.671 225.386 241.777 227.988 243.264Z" fill="#FCA730"/>
<path style="mix-blend-mode:screen" d="M195.1 81.1133L303.242 143.608L283.113 212.296L269.858 210.004L269.548 220.41L195.472 177.549L175.404 92.8813L195.1 81.1133Z" fill="url(#paint13_linear_193_1160)"/>
<path d="M208.659 134.816C208.659 135.064 208.907 135.312 209.155 135.312C209.403 135.312 209.65 135.064 209.65 134.816C209.65 134.569 209.403 134.383 209.155 134.383C208.907 134.383 208.659 134.569 208.659 134.816Z" fill="white"/>
<path d="M233.684 122.613C233.684 122.86 233.87 123.108 234.18 123.108C234.427 123.108 234.613 122.86 234.613 122.613C234.613 122.365 234.427 122.117 234.18 122.117C233.87 122.117 233.684 122.365 233.684 122.613Z" fill="white"/>
<path d="M223.526 130.48C223.526 130.728 223.774 130.975 224.022 130.975C224.269 130.975 224.455 130.728 224.455 130.48C224.455 130.232 224.269 129.984 224.022 129.984C223.774 129.984 223.526 130.232 223.526 130.48Z" fill="white"/>
<path d="M262.175 163.305C262.175 163.614 262.423 163.8 262.671 163.8C262.918 163.8 263.166 163.614 263.166 163.305C263.166 163.057 262.918 162.871 262.671 162.871C262.423 162.871 262.175 163.057 262.175 163.305Z" fill="white"/>
<path d="M258.893 177.119C258.893 177.366 259.079 177.614 259.327 177.614C259.636 177.614 259.822 177.366 259.822 177.119C259.822 176.871 259.636 176.623 259.327 176.623C259.079 176.623 258.893 176.871 258.893 177.119Z" fill="white"/>
<path d="M218.202 151.477C218.202 151.786 218.388 151.972 218.635 151.972C218.883 151.972 219.131 151.786 219.131 151.477C219.131 151.229 218.883 151.043 218.635 151.043C218.388 151.043 218.202 151.229 218.202 151.477Z" fill="white"/>
<path d="M213.741 182.507C213.741 182.755 213.989 183.003 214.237 183.003C214.485 183.003 214.732 182.755 214.732 182.507C214.732 182.259 214.485 182.012 214.237 182.012C213.989 182.012 213.741 182.259 213.741 182.507Z" fill="white"/>
<path d="M200.299 148.32C200.299 148.567 200.485 148.753 200.795 148.753C201.043 148.753 201.229 148.567 201.229 148.32C201.229 148.01 201.043 147.824 200.795 147.824C200.485 147.824 200.299 148.01 200.299 148.32Z" fill="white"/>
<path d="M228.421 188.824C228.421 189.071 228.606 189.319 228.916 189.319C229.164 189.319 229.35 189.071 229.35 188.824C229.35 188.576 229.164 188.328 228.916 188.328C228.606 188.328 228.421 188.576 228.421 188.824Z" fill="white"/>
<path d="M250.904 163.8C250.904 164.048 251.151 164.296 251.399 164.296C251.647 164.296 251.895 164.048 251.895 163.8C251.895 163.552 251.647 163.305 251.399 163.305C251.151 163.305 250.904 163.552 250.904 163.8Z" fill="white"/>
<path d="M241.364 145.098C241.364 145.407 241.55 145.593 241.797 145.593C242.107 145.593 242.293 145.407 242.293 145.098C242.293 144.85 242.107 144.664 241.797 144.664C241.55 144.664 241.364 144.85 241.364 145.098Z" fill="white"/>
<path d="M218.202 112.766C218.202 113.075 218.388 113.261 218.635 113.261C218.883 113.261 219.131 113.075 219.131 112.766C219.131 112.518 218.883 112.332 218.635 112.332C218.388 112.332 218.202 112.518 218.202 112.766Z" fill="white"/>
<path d="M272.208 176.621C272.208 176.931 272.394 177.117 272.703 177.117C272.951 177.117 273.137 176.931 273.137 176.621C273.137 176.373 272.951 176.188 272.703 176.188C272.394 176.188 272.208 176.373 272.208 176.621Z" fill="white"/>
<path d="M271.652 202.142C271.652 202.39 271.899 202.576 272.147 202.576C272.395 202.576 272.643 202.39 272.643 202.142C272.643 201.894 272.395 201.646 272.147 201.646C271.899 201.646 271.652 201.894 271.652 202.142Z" fill="white"/>
<path d="M244.464 169.687C244.464 169.935 244.649 170.12 244.897 170.12C245.207 170.12 245.393 169.935 245.393 169.687C245.393 169.439 245.207 169.191 244.897 169.191C244.649 169.191 244.464 169.439 244.464 169.687Z" fill="white"/>
<path d="M215.784 172.597C215.784 172.845 215.97 173.031 216.279 173.031C216.527 173.031 216.713 172.845 216.713 172.597C216.713 172.349 216.527 172.102 216.279 172.102C215.97 172.102 215.784 172.349 215.784 172.597Z" fill="white"/>
<path d="M203.522 121.499C203.522 121.747 203.708 121.995 203.956 121.995C204.265 121.995 204.451 121.747 204.451 121.499C204.451 121.252 204.265 121.004 203.956 121.004C203.708 121.004 203.522 121.252 203.522 121.499Z" fill="white"/>
<path d="M245.019 184.242C245.019 184.489 245.267 184.737 245.514 184.737C245.762 184.737 246.01 184.489 246.01 184.242C246.01 183.994 245.762 183.746 245.514 183.746C245.267 183.746 245.019 183.994 245.019 184.242Z" fill="white"/>
<path d="M275.739 136.55C275.739 136.798 275.987 136.984 276.235 136.984C276.483 136.984 276.73 136.798 276.73 136.55C276.73 136.241 276.483 136.055 276.235 136.055C275.987 136.055 275.739 136.241 275.739 136.55Z" fill="white"/>
<path d="M267.81 151.972C267.81 152.22 268.058 152.468 268.305 152.468C268.553 152.468 268.801 152.22 268.801 151.972C268.801 151.724 268.553 151.477 268.305 151.477C268.058 151.477 267.81 151.724 267.81 151.972Z" fill="white"/>
<path d="M262.175 201.025C262.175 201.335 262.423 201.521 262.671 201.521C262.918 201.521 263.166 201.335 263.166 201.025C263.166 200.778 262.918 200.592 262.671 200.592C262.423 200.592 262.175 200.778 262.175 201.025Z" fill="white"/>
<path d="M258.397 142.867C258.397 143.114 258.583 143.362 258.893 143.362C259.14 143.362 259.326 143.114 259.326 142.867C259.326 142.619 259.14 142.371 258.893 142.371C258.583 142.371 258.397 142.619 258.397 142.867Z" fill="white"/>
<path d="M201.847 108.12C201.847 108.368 202.095 108.554 202.342 108.554C202.59 108.554 202.838 108.368 202.838 108.12C202.838 107.811 202.59 107.625 202.342 107.625C202.095 107.625 201.847 107.811 201.847 108.12Z" fill="white"/>
<path d="M258.893 118.71C258.893 118.958 259.079 119.206 259.327 119.206C259.636 119.206 259.822 118.958 259.822 118.71C259.822 118.463 259.636 118.215 259.327 118.215C259.079 118.215 258.893 118.463 258.893 118.71Z" fill="white"/>
<path d="M250.469 130.976C250.469 131.224 250.655 131.471 250.903 131.471C251.213 131.471 251.398 131.224 251.398 130.976C251.398 130.728 251.213 130.48 250.903 130.48C250.655 130.48 250.469 130.728 250.469 130.976Z" fill="white"/>
<path d="M232.571 144.663C232.571 144.911 232.819 145.097 233.067 145.097C233.315 145.097 233.562 144.911 233.562 144.663C233.562 144.354 233.315 144.168 233.067 144.168C232.819 144.168 232.571 144.354 232.571 144.663Z" fill="white"/>
<path d="M321.752 403.991L352.225 421.581C356.623 424.12 364.365 423.811 369.382 420.899L397.439 404.734C402.456 401.823 403.014 397.363 398.616 394.824L368.143 377.234C363.807 374.694 356.065 375.004 350.986 377.915L322.991 394.081C317.912 396.992 317.354 401.451 321.752 403.991Z" fill="url(#paint14_linear_193_1160)"/>
<path d="M322.992 394.081L350.988 377.915C353.899 376.243 357.739 375.437 361.27 375.499C358.111 375.623 354.766 376.428 352.165 377.915L324.169 394.081C319.09 396.992 318.533 401.451 322.93 403.99L353.404 421.581C355.262 422.695 357.677 423.253 360.279 423.315C357.244 423.377 354.333 422.819 352.227 421.581L321.754 403.99C317.356 401.451 317.914 396.992 322.992 394.081Z" fill="url(#paint15_linear_193_1160)"/>
<path d="M321.753 403.992L352.226 421.582C356.624 424.121 364.366 423.811 369.383 420.9L397.44 404.735C400.041 403.186 401.466 401.266 401.59 399.408V417.989C401.714 420.033 400.351 422.201 397.44 423.873L369.383 440.039C364.366 443.012 356.624 443.322 352.226 440.782L321.753 423.192C319.647 421.953 318.718 420.281 318.842 418.547V400.028C318.966 401.514 319.895 402.939 321.753 403.992Z" fill="url(#paint16_linear_193_1160)"/>
<g style="mix-blend-mode:overlay">
<path d="M400.041 402.627C400.97 401.636 401.528 400.521 401.59 399.406V400.707C401.218 401.368 400.702 402.008 400.041 402.627Z" fill="url(#paint17_linear_193_1160)"/>
<path d="M319.397 401.824V417.989C319.274 419.723 320.265 421.396 322.37 422.572L352.844 440.163C357.179 442.702 364.921 442.392 370 439.481L397.996 423.316C398.822 422.82 399.523 422.304 400.102 421.767C399.441 422.511 398.553 423.212 397.438 423.873L369.381 440.039C364.364 443.012 356.622 443.321 352.224 440.782L321.751 423.192C319.645 421.953 318.716 420.281 318.84 418.547V400.027C318.881 400.647 319.067 401.245 319.397 401.824Z" fill="url(#paint18_linear_193_1160)"/>
</g>
<path d="M363.871 418.175L392.672 401.576C394.716 400.4 394.901 398.603 393.167 397.55L363.375 380.394C361.641 379.341 358.544 379.465 356.5 380.642L327.7 397.303C325.718 398.479 325.47 400.276 327.204 401.267L356.996 418.423C358.73 419.476 361.889 419.352 363.871 418.175Z" fill="url(#paint19_linear_193_1160)"/>
<path d="M393.168 399.904L363.376 382.747C361.642 381.756 358.545 381.88 356.501 383.057L327.7 399.656C327.205 399.945 326.812 400.276 326.523 400.647C325.594 399.656 326.028 398.232 327.7 397.303L356.501 380.642C358.545 379.465 361.642 379.341 363.376 380.394L393.168 397.55C394.468 398.294 394.654 399.47 393.911 400.523C393.725 400.338 393.477 400.09 393.168 399.904Z" fill="url(#paint20_linear_193_1160)"/>
<path fill-rule="evenodd" clip-rule="evenodd" d="M338.974 404.797L355.14 414.088C355.821 414.521 356.874 414.583 357.741 414.274L376.57 408.142L372.359 405.726L372.792 395.011C372.792 394.825 372.482 394.639 372.173 394.701C371.863 394.701 371.553 394.887 371.553 395.073L371.12 405.045L353.592 394.887L372.668 392.348C372.978 392.348 373.226 392.162 373.164 391.914C373.164 391.728 372.854 391.605 372.544 391.667L352.601 394.33L349.256 392.348L338.603 403.249C338.107 403.744 338.293 404.364 338.974 404.797ZM355.945 410.062L364.059 406.841L366.66 408.328L357.927 411.239L355.945 410.062ZM351.795 407.646L358.918 403.806L361.458 405.293L353.839 408.823L351.795 407.646ZM347.646 405.293L353.654 400.833L356.193 402.258L349.69 406.408L347.646 405.293ZM343.496 402.939L348.389 397.86L350.99 399.285L345.478 404.116L343.496 402.939Z" fill="#24116A"/>
<path fill-rule="evenodd" clip-rule="evenodd" d="M338.974 404.115L355.14 413.406C355.821 413.839 356.874 413.901 357.741 413.654L376.57 407.46L372.359 405.044L372.792 394.329C372.792 394.143 372.482 393.957 372.173 394.019C371.863 394.019 371.553 394.205 371.553 394.391L371.12 404.363L353.592 394.205L372.668 391.666C372.978 391.666 373.226 391.48 373.164 391.294C373.164 391.046 372.854 390.923 372.544 390.985L352.601 393.648L349.256 391.728L338.603 402.567C338.107 403.062 338.293 403.682 338.974 404.115ZM355.945 409.38L364.059 406.159L366.66 407.646L357.927 410.557L355.945 409.38ZM351.795 406.964L358.918 403.124L361.458 404.611L353.839 408.141L351.795 406.964ZM347.646 404.611L353.654 400.151L356.193 401.576L349.69 405.787L347.646 404.611ZM343.496 402.195L348.389 397.116L350.99 398.603L345.478 403.372L343.496 402.195Z" fill="url(#paint21_linear_193_1160)"/>
<path d="M181.723 326.323L212.196 343.913C216.531 346.452 224.273 346.143 229.352 343.232L257.348 327.066C262.427 324.155 262.984 319.695 258.587 317.156L228.114 299.566C223.716 297.026 215.974 297.336 210.957 300.247L182.899 316.413C177.883 319.324 177.325 323.783 181.723 326.323Z" fill="url(#paint22_linear_193_1160)"/>
<path d="M182.897 316.413L210.955 300.247C213.866 298.575 217.706 297.77 221.236 297.831C218.016 297.955 214.733 298.761 212.132 300.247L184.136 316.413C179.057 319.324 178.5 323.783 182.897 326.323L213.37 343.913C215.228 345.028 217.644 345.523 220.245 345.647C217.21 345.709 214.299 345.151 212.194 343.913L181.72 326.323C177.323 323.783 177.88 319.324 182.897 316.413Z" fill="url(#paint23_linear_193_1160)"/>
<path d="M181.723 326.322L212.196 343.912C216.531 346.451 224.273 346.142 229.352 343.23L257.348 327.065C260.011 325.516 261.374 323.596 261.498 321.738V340.257C261.683 342.301 260.259 344.531 257.348 346.203L229.352 362.369C224.273 365.28 216.531 365.652 212.196 363.112L181.723 345.522C179.617 344.283 178.626 342.611 178.75 340.877V322.358C178.873 323.844 179.864 325.269 181.723 326.322Z" fill="url(#paint24_linear_193_1160)"/>
<g style="mix-blend-mode:overlay">
<path d="M259.95 324.959C260.941 323.906 261.436 322.853 261.498 321.738V323.039C261.168 323.7 260.652 324.34 259.95 324.959Z" fill="url(#paint25_linear_193_1160)"/>
<path d="M179.368 324.154V340.319C179.244 342.053 180.173 343.664 182.279 344.903L212.752 362.493C217.149 365.032 224.891 364.722 229.908 361.811L257.966 345.646C258.75 345.15 259.432 344.634 260.01 344.097C259.349 344.841 258.461 345.543 257.346 346.203L229.351 362.369C224.272 365.28 216.53 365.652 212.194 363.112L181.721 345.522C179.615 344.283 178.624 342.611 178.748 340.877V322.357C178.79 322.977 178.996 323.576 179.368 324.154Z" fill="url(#paint26_linear_193_1160)"/>
</g>
<path d="M223.839 340.508L252.64 323.846C254.622 322.67 254.869 320.935 253.135 319.882L223.343 302.726C221.609 301.673 218.45 301.797 216.468 302.974L187.668 319.573C185.624 320.75 185.438 322.546 187.172 323.599L216.964 340.755C218.698 341.808 221.795 341.684 223.839 340.508Z" fill="url(#paint27_linear_193_1160)"/>
<path d="M253.137 322.236L223.345 305.08C221.611 304.027 218.452 304.15 216.47 305.327L187.669 321.988C187.132 322.277 186.72 322.608 186.431 322.979C185.563 321.988 185.997 320.564 187.669 319.573L216.47 302.974C218.452 301.797 221.611 301.673 223.345 302.726L253.137 319.882C254.437 320.626 254.623 321.803 253.818 322.855C253.632 322.608 253.446 322.422 253.137 322.236Z" fill="url(#paint28_linear_193_1160)"/>
<path d="M217.026 323.413C217.274 323.289 217.584 323.227 217.955 323.227C218.327 323.268 218.884 323.371 219.627 323.536C220.329 323.702 221.258 323.929 222.415 324.218C223.695 324.589 224.851 324.816 225.883 324.899C226.915 324.982 227.844 324.94 228.67 324.775C229.455 324.61 230.26 324.3 231.086 323.846C232.325 323.103 232.882 322.298 232.758 321.431C232.676 320.605 231.932 319.676 230.528 318.643L233.006 317.219L230.652 315.856L228.175 317.281C226.606 316.455 224.748 315.794 222.6 315.299L220.742 317.962C223.013 318.458 224.768 319.056 226.007 319.758C226.626 320.13 226.977 320.419 227.06 320.625C227.142 320.873 227.06 321.08 226.812 321.245C226.564 321.369 226.255 321.431 225.883 321.431C225.553 321.431 225.078 321.348 224.459 321.183C223.839 321.059 222.993 320.853 221.919 320.563C219.813 319.985 218.058 319.696 216.654 319.696C215.292 319.738 214.053 320.068 212.938 320.687C211.658 321.431 211.018 322.256 211.018 323.165C211.059 324.073 211.741 325.023 213.062 326.014L210.089 327.748L212.381 329.111L215.354 327.377C217.047 328.285 218.987 328.987 221.176 329.482L224.892 327.377C223.612 327.129 222.311 326.778 220.99 326.324C219.669 325.911 218.616 325.498 217.831 325.085C217.212 324.713 216.82 324.383 216.654 324.094C216.531 323.846 216.654 323.619 217.026 323.413Z" fill="#24116A"/>
<path d="M217.026 322.731C217.274 322.607 217.584 322.545 217.955 322.545C218.327 322.586 218.884 322.69 219.627 322.855C220.329 323.02 221.258 323.247 222.415 323.536C223.695 323.908 224.851 324.135 225.883 324.217C226.915 324.3 227.844 324.259 228.67 324.094C229.455 323.928 230.26 323.619 231.086 323.165C232.325 322.421 232.882 321.616 232.758 320.749C232.676 319.923 231.932 318.994 230.528 317.962L233.006 316.537L230.652 315.175L228.175 316.599C226.606 315.773 224.748 315.113 222.6 314.617L220.742 317.281C223.013 317.776 224.768 318.375 226.007 319.077C226.626 319.448 226.977 319.737 227.06 319.944C227.142 320.192 227.06 320.398 226.812 320.563C226.564 320.687 226.255 320.749 225.883 320.749C225.553 320.749 225.078 320.666 224.459 320.501C223.839 320.377 222.993 320.171 221.919 319.882C219.813 319.304 218.058 319.015 216.654 319.015C215.292 319.056 214.053 319.386 212.938 320.006C211.658 320.749 211.018 321.575 211.018 322.483C211.059 323.392 211.741 324.341 213.062 325.332L210.089 327.067L212.381 328.429L215.354 326.695C217.047 327.603 218.987 328.305 221.176 328.801L224.892 326.695C223.612 326.447 222.311 326.117 220.99 325.704C219.669 325.25 218.616 324.816 217.831 324.403C217.212 324.032 216.82 323.701 216.654 323.412C216.531 323.165 216.654 322.937 217.026 322.731Z" fill="url(#paint29_linear_193_1160)"/>
<path d="M251.704 365.155L282.177 382.745C286.574 385.284 294.316 384.975 299.395 382.064L327.391 365.898C332.47 362.987 333.027 358.527 328.63 355.988L298.156 338.398C293.759 335.858 286.017 336.168 280.938 339.079L252.942 355.245C247.864 358.156 247.368 362.615 251.704 365.155Z" fill="url(#paint30_linear_193_1160)"/>
<path d="M252.94 355.245L280.936 339.079C283.909 337.407 287.687 336.602 291.279 336.663C288.059 336.787 284.776 337.593 282.175 339.079L254.117 355.245C249.1 358.156 248.543 362.615 252.878 365.155L283.351 382.745C285.209 383.86 287.687 384.417 290.226 384.479C287.253 384.541 284.342 383.983 282.175 382.745L251.701 365.155C247.366 362.615 247.861 358.156 252.94 355.245Z" fill="url(#paint31_linear_193_1160)"/>
<path d="M251.704 365.154L282.177 382.744C286.574 385.283 294.316 384.974 299.395 382.063L327.391 365.897C329.992 364.349 331.417 362.428 331.541 360.57V379.09C331.726 381.133 330.302 383.363 327.391 385.035L299.395 401.201C294.316 404.112 286.574 404.484 282.177 401.944L251.704 384.354C249.598 383.115 248.669 381.443 248.793 379.709V361.19C248.916 362.676 249.845 364.101 251.704 365.154Z" fill="url(#paint32_linear_193_1160)"/>
<g style="mix-blend-mode:overlay">
<path d="M329.991 363.793C330.92 362.802 331.477 361.687 331.539 360.572V361.873C331.167 362.534 330.651 363.174 329.991 363.793Z" fill="url(#paint33_linear_193_1160)"/>
<path d="M249.347 362.988V379.153C249.223 380.887 250.214 382.498 252.32 383.737L282.793 401.327C287.19 403.866 294.871 403.556 299.949 400.645L327.945 384.48C328.771 383.984 329.473 383.468 330.051 382.931C329.39 383.675 328.502 384.377 327.387 385.037L299.392 401.203C294.313 404.114 286.571 404.485 282.173 401.946L251.7 384.356C249.594 383.117 248.665 381.445 248.789 379.711V361.191C248.831 361.811 249.016 362.41 249.347 362.988Z" fill="url(#paint34_linear_193_1160)"/>
</g>
<path d="M293.884 379.34L322.623 362.678C324.667 361.564 324.915 359.767 323.118 358.715L293.389 341.558C291.592 340.505 288.496 340.629 286.452 341.806L257.713 358.467C255.669 359.644 255.421 361.378 257.217 362.431L286.947 379.587C288.743 380.64 291.84 380.516 293.884 379.34Z" fill="url(#paint35_linear_193_1160)"/>
<path d="M323.115 361.068L293.385 343.912C291.589 342.859 288.492 343.044 286.448 344.159L257.71 360.82C257.173 361.109 256.76 361.44 256.471 361.811C255.604 360.82 256.037 359.396 257.71 358.467L286.448 341.806C288.492 340.629 291.589 340.505 293.385 341.558L323.115 358.715C324.416 359.458 324.664 360.635 323.859 361.687C323.673 361.502 323.425 361.254 323.115 361.068Z" fill="url(#paint36_linear_193_1160)"/>
<path fill-rule="evenodd" clip-rule="evenodd" d="M267.747 362.183L289.548 374.819C290.973 375.624 293.327 375.5 294.689 374.757L310.483 365.59C311.846 364.847 311.722 363.608 310.359 362.803L307.944 361.44L306.519 362.245C305.528 362.803 303.98 362.865 302.989 362.307C301.998 361.688 302.06 360.821 303.051 360.263L304.475 359.396L294.441 353.636L293.017 354.441C292.026 354.999 290.416 355.061 289.486 354.503C288.495 353.884 288.495 353.017 289.486 352.459L290.911 351.592L288.496 350.229C287.133 349.424 285.089 349.362 283.664 350.168L267.87 359.272C266.508 360.078 266.384 361.44 267.747 362.183ZM269.729 360.635L280.939 354.132L303.546 367.2L292.336 373.704L269.729 360.635ZM295.556 351.221L295.123 350.973C294.503 350.601 293.389 350.601 292.645 351.035L289.982 352.583C289.239 353.017 289.177 353.636 289.796 354.008L290.292 354.255C290.911 354.627 291.964 354.565 292.707 354.193L295.371 352.645C296.114 352.211 296.176 351.592 295.556 351.221ZM309.121 359.025L308.625 358.777C308.006 358.405 306.953 358.467 306.21 358.839L303.546 360.387C302.803 360.821 302.741 361.44 303.36 361.812L303.794 362.121C304.413 362.431 305.528 362.431 306.271 361.998L308.935 360.449C309.678 360.016 309.74 359.396 309.121 359.025ZM284.779 365.652L283.231 366.519L288.867 369.802L289.982 369.12L289.92 368.005C289.734 366.085 289.796 365.094 290.663 364.537C291.345 364.165 292.212 364.103 293.141 364.599C293.822 365.032 294.132 365.59 294.194 366.023L296.052 365.528C295.928 364.909 295.371 364.165 294.256 363.546C292.459 362.493 290.416 362.555 288.991 363.36C287.628 364.165 287.566 365.342 287.69 366.581L287.814 367.386H287.752L284.779 365.652ZM279.143 361.068C277.656 361.936 277.595 363.422 279.762 364.661C280.753 365.218 281.744 365.528 282.426 365.652L283.479 364.661C282.983 364.599 282.054 364.289 281.311 363.856C280.506 363.422 280.072 362.741 280.939 362.245C281.744 361.75 282.921 361.874 284.47 362.803C284.903 363.051 285.213 363.236 285.522 363.422L289.115 360.697L284.779 358.219L283.231 359.087L286.328 360.883L285.275 361.688C285.089 361.564 284.965 361.44 284.779 361.378C284.036 360.945 283.045 360.573 282.116 360.449C281.063 360.387 280.072 360.511 279.143 361.068Z" fill="#24116A"/>
<path fill-rule="evenodd" clip-rule="evenodd" d="M267.747 361.566L289.548 374.139C290.973 374.944 293.327 374.882 294.689 374.077L310.483 364.972C311.846 364.167 311.722 362.928 310.359 362.123L307.944 360.76L306.519 361.566C305.528 362.123 303.98 362.185 302.989 361.628C301.998 361.07 302.06 360.141 303.051 359.584L304.475 358.716L294.441 352.956L293.017 353.762C292.026 354.319 290.416 354.381 289.486 353.823C288.495 353.266 288.495 352.337 289.486 351.78L290.911 350.912L288.496 349.55C287.133 348.745 285.089 348.683 283.664 349.488L267.87 358.593C266.508 359.398 266.384 360.76 267.747 361.566ZM295.556 350.541L295.123 350.293C294.503 349.921 293.389 349.983 292.645 350.417L289.982 351.903C289.239 352.337 289.177 352.956 289.796 353.328L290.23 353.638C290.911 353.947 291.964 353.947 292.707 353.514L295.371 351.965C296.114 351.532 296.176 350.912 295.556 350.541ZM269.729 359.955L280.939 353.452L303.546 366.521L292.336 373.024L269.729 359.955ZM284.779 364.972L283.231 365.839L288.867 369.122L289.982 368.441L289.92 367.326C289.734 365.406 289.796 364.415 290.663 363.857C291.345 363.486 292.212 363.424 293.141 363.981C293.822 364.353 294.132 364.91 294.194 365.344L296.052 364.848C295.928 364.229 295.371 363.486 294.256 362.866C292.459 361.813 290.416 361.875 288.991 362.68C287.628 363.486 287.566 364.662 287.69 365.901L287.814 366.706H287.752L284.779 364.972ZM309.121 358.345L308.687 358.097C308.068 357.725 306.953 357.787 306.21 358.221L303.546 359.769C302.865 360.141 302.741 360.822 303.36 361.132L303.856 361.442C304.475 361.751 305.59 361.751 306.271 361.318L308.935 359.769C309.678 359.336 309.74 358.717 309.121 358.345ZM279.143 360.389C277.656 361.256 277.595 362.742 279.762 363.981C280.753 364.539 281.744 364.91 282.426 364.972L283.479 363.981C282.983 363.919 282.054 363.61 281.311 363.176C280.506 362.742 280.072 362.061 280.939 361.566C281.744 361.07 282.921 361.194 284.47 362.123C284.903 362.371 285.213 362.557 285.522 362.742L289.115 360.079L284.779 357.54L283.231 358.407L286.328 360.203L285.275 361.008C285.089 360.884 284.965 360.822 284.779 360.698C284.036 360.265 283.045 359.893 282.116 359.831C281.063 359.707 280.072 359.831 279.143 360.389Z" fill="url(#paint37_linear_193_1160)"/>
<path d="M514.943 272.687C514.943 279.934 520.827 285.756 528.074 285.756C535.259 285.756 541.143 279.934 541.143 272.687C541.143 265.441 535.259 259.557 528.074 259.557C520.827 259.557 514.943 265.441 514.943 272.687Z" fill="url(#paint38_radial_193_1160)"/>
<path d="M531.234 303.409C531.234 307.126 534.269 310.099 537.985 310.099C541.701 310.099 544.736 307.126 544.736 303.409C544.736 299.693 541.701 296.658 537.985 296.658C534.269 296.658 531.234 299.693 531.234 303.409Z" fill="url(#paint39_radial_193_1160)"/>
<path style="mix-blend-mode:multiply" d="M332.358 295.538L545.669 171.974C551.925 168.381 559.667 168.381 565.923 172.036L657.032 225.24C670.349 232.982 670.349 252.244 657.032 259.986L444.774 383.613C438.518 387.205 430.838 387.267 424.582 383.613L332.358 330.409C318.979 322.667 318.979 303.342 332.358 295.538Z" fill="url(#paint40_linear_193_1160)"/>
<path d="M437.094 386.523V105.329C437.094 97.5247 432.387 88.4819 426.564 85.1373L306.097 15.5819C300.213 12.1753 295.505 15.7677 295.505 23.5718V304.766C295.505 312.508 300.213 321.551 306.097 324.896L426.564 394.451C432.387 397.858 437.094 394.266 437.094 386.523Z" fill="url(#paint41_linear_193_1160)"/>
<path style="mix-blend-mode:overlay" d="M298.354 15.582C296.992 17.1924 296.187 19.6699 296.187 22.8906V304.085C296.187 311.827 300.894 320.87 306.716 324.215L427.246 393.832C430.28 395.566 433.006 395.442 434.926 393.77C433.006 396 429.971 396.433 426.564 394.451L306.097 324.896C300.213 321.551 295.505 312.509 295.505 304.767V23.5719C295.505 19.8557 296.62 17.0685 298.354 15.582Z" fill="url(#paint42_linear_193_1160)"/>
<path d="M299.1 15.0243L299.348 14.9004C299.265 14.9417 299.182 14.983 299.1 15.0243Z" fill="url(#paint43_linear_193_1160)"/>
<path d="M434.247 394.45C436.043 392.964 437.096 390.239 437.096 386.522V105.328C437.096 97.5239 432.388 88.481 426.566 85.1364L306.099 15.581C303.497 14.0946 301.206 13.9707 299.348 14.8997L305.789 11.2454C307.709 9.75896 310.372 9.63508 313.345 11.3693L433.813 80.9247C439.635 84.2693 444.404 93.3121 444.404 101.116V382.311C444.404 386.956 442.67 390.053 440.069 391.106V391.168L434.247 394.45Z" fill="url(#paint44_linear_193_1160)"/>
<path style="mix-blend-mode:overlay" d="M307.089 15.2091L427.619 84.7645C433.441 88.171 438.148 97.2138 438.148 104.956V386.151C438.148 389.433 437.281 391.973 435.857 393.521L434.246 394.45C436.043 392.964 437.157 390.238 437.157 386.46V105.266C437.157 97.5235 432.388 88.4807 426.566 85.1361L306.098 15.5807C304.116 14.4039 302.258 14.0942 300.71 14.4039C302.444 13.6607 304.674 13.8465 307.089 15.2091ZM299.347 14.8994C299.306 14.9407 299.244 14.982 299.161 15.0233L299.347 14.8994Z" fill="url(#paint45_linear_193_1160)"/>
<path d="M306.841 21.3434L327.652 33.3592L330.749 41.1633C332.297 45.0034 335.023 48.348 337.996 50.0823L394.668 82.7851C397.579 84.4574 400.366 84.2715 401.853 82.2276L405.012 78.0159L425.761 90.0317C429.477 92.1376 432.512 97.4022 432.512 101.676V384.791C432.512 389.126 429.477 390.86 425.761 388.693L306.841 320.066C303.125 317.898 300.09 312.696 300.09 308.36V25.2455C300.09 20.9099 303.125 19.1756 306.841 21.3434Z" fill="url(#paint46_linear_193_1160)"/>
<path style="mix-blend-mode:overlay" d="M330.129 49.1531L366.919 70.4595C367.601 70.8311 368.158 70.3975 368.158 69.5304C368.158 68.6633 367.601 67.6104 366.919 67.2387L330.129 45.9943C329.447 45.5607 328.89 45.9943 328.89 46.8614C328.89 47.7286 329.447 48.7815 330.129 49.1531Z" fill="url(#paint47_linear_193_1160)"/>
<path style="mix-blend-mode:overlay" d="M337.996 50.0823L394.669 82.7851C397.58 84.4574 400.367 84.2715 401.854 82.2276L405.012 78.0159L425.761 90.0317C427.681 91.0846 429.416 93.0047 430.654 95.1725C429.601 93.8718 428.425 92.7569 427.124 92.0137L406.313 79.9979L403.216 84.2715C401.73 86.3155 398.942 86.5013 396.031 84.829L339.359 52.0642C337.067 50.7636 334.961 48.5338 333.413 45.8086C334.776 47.6048 336.324 49.0913 337.996 50.0823ZM306.842 21.3434L327.653 33.3592L328.272 34.9696L308.205 23.3873C304.488 21.2195 301.453 22.9538 301.453 27.2894V310.404C301.453 312.51 302.197 314.802 303.374 316.907C301.392 314.43 300.091 311.209 300.091 308.36V25.2455C300.091 20.9099 303.126 19.1756 306.842 21.3434Z" fill="url(#paint48_linear_193_1160)"/>
<path d="M440.13 179.22L440.316 179.096C440.997 178.724 441.555 177.672 441.555 176.804V150.977C441.555 150.11 440.997 149.676 440.316 150.11L440.13 150.171C439.449 150.543 438.891 151.596 438.891 152.525V178.291C438.891 179.158 439.449 179.592 440.13 179.22Z" fill="url(#paint49_linear_193_1160)"/>
<path d="M441.491 179.22L441.677 179.096C442.358 178.724 442.854 177.672 442.854 176.804V150.977C442.854 150.11 442.358 149.676 441.677 150.11L441.491 150.171C440.81 150.543 440.252 151.596 440.252 152.525V178.291C440.252 179.158 440.81 179.592 441.491 179.22Z" fill="url(#paint50_linear_193_1160)"/>
<path d="M321.519 19.6086C320.342 20.228 320.342 21.3429 321.519 22.0242C322.696 22.7055 324.554 22.7055 325.731 22.0242C326.907 21.3429 326.907 20.228 325.731 19.6086C324.554 18.9273 322.696 18.9273 321.519 19.6086Z" fill="url(#paint51_linear_193_1160)"/>
<path d="M321.519 19.6086C322.696 18.9273 324.554 18.9273 325.731 19.6086C326.02 19.7738 326.247 19.9596 326.412 20.1661C326.33 20.1248 326.226 20.0628 326.102 19.9803C324.988 19.299 323.068 19.299 321.953 19.9803C321.086 20.4758 320.838 21.219 321.271 21.8384C320.404 21.1571 320.466 20.228 321.519 19.6086Z" fill="url(#paint52_linear_193_1160)"/>
<g style="mix-blend-mode:overlay">
<path d="M300.09 159.154V64.8242L432.512 197.184V291.576L300.09 159.154Z" fill="url(#paint53_linear_193_1160)"/>
<path d="M432.512 169.497L300.09 37.0755V25.2455C300.09 20.9099 303.125 19.1756 306.841 21.3434L317.494 27.4752L330.501 40.482L330.749 41.1633C332.297 45.0034 335.023 48.348 337.996 50.0823L342.951 52.9314L432.512 142.492V169.497Z" fill="url(#paint54_linear_193_1160)"/>
<path d="M300.09 234.531V180.336L432.512 312.696V366.952L300.09 234.531Z" fill="url(#paint55_linear_193_1160)"/>
<path d="M300.09 283.337V270.949L407.117 377.977L377.821 361.006L300.09 283.337Z" fill="url(#paint56_linear_193_1160)"/>
</g>
<path d="M300.091 25.2455C300.091 20.9099 303.126 19.1756 306.842 21.3434L327.653 33.3592L330.75 41.1633C332.298 45.0034 335.023 48.348 337.996 50.0823L394.669 82.7851C397.58 84.4574 400.367 84.2715 401.854 82.2276L405.012 78.0159L425.761 90.0317C427.681 91.0846 429.416 93.0047 430.654 95.1725L303.374 316.907C301.392 314.43 300.091 311.209 300.091 308.36V25.2455Z" fill="url(#paint57_linear_193_1160)"/>
<path style="mix-blend-mode:color-dodge" d="M289.123 30.6344L309.933 42.6502L313.03 50.4543C314.579 54.2325 317.304 57.639 320.277 59.3733L376.949 92.0761C379.86 93.7484 382.648 93.5626 384.134 91.5186L387.293 87.3069L408.042 99.2608C411.758 101.429 414.793 106.631 414.793 110.967V394.082C414.793 398.417 411.758 400.151 408.042 397.984L289.123 329.357C285.406 327.189 282.371 321.987 282.371 317.651V34.5365C282.371 30.2009 285.406 28.4666 289.123 30.6344Z" fill="url(#paint58_linear_193_1160)"/>
<path d="M306.277 146.827L390.883 195.695V191.917L306.277 143.049V146.827Z" fill="white"/>
<path d="M346.102 179.097L390.883 204.924V201.146L346.102 175.318V179.097Z" fill="white"/>
<path d="M306.277 165.345L390.883 214.214V210.435L306.277 161.629V165.345Z" fill="white"/>
<path d="M322.195 183.804L390.883 223.443V219.727L322.195 180.025V183.804Z" fill="white"/>
<path d="M306.277 183.929L390.883 232.735V228.957L306.277 180.15V183.929Z" fill="white"/>
<path d="M306.277 202.509L390.883 251.315V247.537L306.277 198.73V202.509Z" fill="white"/>
<path d="M322.195 220.904L390.883 260.605V256.827L322.195 217.188V220.904Z" fill="white"/>
<path d="M306.277 221.028L390.883 269.835V266.056L306.277 217.25V221.028Z" fill="white"/>
<path d="M365.181 278.073L389.398 292.009V280.365L365.181 266.367V278.073Z" fill="url(#paint59_linear_193_1160)"/>
<path d="M336.503 261.472L360.658 275.47V263.764L336.503 249.828V261.472Z" fill="url(#paint60_linear_193_1160)"/>
<path d="M307.829 244.937L331.984 258.872V247.228L307.829 233.23V244.937Z" fill="url(#paint61_linear_193_1160)"/>
<path style="mix-blend-mode:overlay" d="M300.579 124.406L396.582 179.84C400.36 182.008 403.457 179.716 403.457 174.699V150.296C403.457 145.279 400.36 139.457 396.582 137.227L300.579 81.8553C296.801 79.6255 293.766 81.9791 293.766 86.996V111.337C293.766 116.416 296.801 122.238 300.579 124.406Z" fill="url(#paint62_linear_193_1160)"/>
<path d="M363.941 325.517C364.766 325.93 365.592 326.384 366.418 326.88C368.524 328.242 369.618 330.142 369.701 332.578C369.763 334.25 369.763 335.799 369.763 337.409C369.701 339.143 369.763 340.878 369.701 342.55C369.639 344.718 368.524 345.337 366.666 344.408C365.716 343.954 364.766 343.417 363.817 342.798C361.897 341.559 360.782 339.639 360.72 337.471C360.637 334.003 360.637 330.596 360.72 327.251C360.782 324.96 361.959 324.464 363.941 325.517ZM351.739 311.457C352.544 311.891 353.349 312.386 354.155 312.882C356.508 314.306 357.623 316.227 357.685 318.952C357.685 321.615 357.685 324.278 357.685 326.942C357.685 329.791 357.685 332.64 357.623 335.427C357.623 337.843 356.446 338.462 354.34 337.347C353.473 336.914 352.606 336.418 351.739 335.799C349.819 334.56 348.642 332.64 348.642 330.41C348.56 324.671 348.56 318.952 348.642 313.254C348.642 311.086 349.819 310.528 351.739 311.457ZM346.722 285.258C353.845 295.23 361.153 304.335 369.701 311.334C371.93 313.13 373.045 315.483 372.674 317.218C372.302 319.138 370.63 319.138 368.4 317.341C361.091 311.395 354.464 304.025 348.27 295.787C346.412 293.372 344.678 290.894 342.82 288.417C341.705 289.346 340.714 290.151 339.413 291.142C337.431 283.772 335.511 276.835 333.529 269.588C339.166 273.923 344.492 278.011 350.129 282.347C348.828 283.4 347.775 284.329 346.722 285.258ZM336.564 299.751C336.564 297.088 337.679 296.469 340.033 297.707C340.838 298.141 341.643 298.636 342.448 299.132C344.368 300.371 345.545 302.291 345.545 304.52C345.628 312.614 345.628 320.645 345.545 328.614C345.545 330.844 344.368 331.401 342.51 330.472C341.705 330.1 340.962 329.667 340.219 329.171C337.679 327.685 336.564 325.765 336.564 322.792C336.502 319.014 336.502 315.297 336.564 311.519C336.564 307.617 336.502 303.653 336.564 299.751ZM324.487 285.939C324.487 283.09 325.602 282.471 328.017 283.833C328.822 284.267 329.565 284.639 330.309 285.134C332.291 286.435 333.468 288.355 333.468 290.708C333.509 301.031 333.509 311.313 333.468 321.553C333.468 323.907 332.291 324.464 330.309 323.473C329.689 323.164 329.07 322.73 328.451 322.358C325.54 320.686 324.487 318.89 324.487 315.483C324.425 310.652 324.487 305.759 324.487 300.928C324.487 295.911 324.425 290.894 324.487 285.939Z" fill="url(#paint63_linear_193_1160)"/>
<path style="mix-blend-mode:multiply" d="M461.246 409.256L631.511 294.486L688.617 326.074L508.938 415.945L461.246 409.256Z" fill="url(#paint64_linear_193_1160)"/>
<path d="M509.744 369.616C522.565 362.245 522.565 350.167 509.744 342.735C496.985 335.364 476.05 335.364 463.229 342.735C450.47 350.167 450.47 362.245 463.229 369.616C476.05 376.986 496.985 376.986 509.744 369.616Z" fill="url(#paint65_linear_193_1160)"/>
<path d="M486.516 371.783C494.754 371.783 502.372 369.987 508.07 366.704C513.211 363.731 515.998 360.015 515.998 356.175C515.998 352.335 513.211 348.619 508.07 345.708C502.372 342.425 494.754 340.629 486.516 340.629C478.278 340.629 470.598 342.425 464.962 345.708C459.821 348.619 457.034 352.335 457.034 356.175C457.034 360.015 459.821 363.731 464.962 366.704C470.598 369.987 478.278 371.783 486.516 371.783Z" fill="url(#paint66_linear_193_1160)"/>
<path d="M463.225 369.616C476.046 376.987 496.981 376.987 509.74 369.616C516.058 366.024 519.216 361.255 519.34 356.485V369.368C519.464 374.323 516.305 379.34 509.74 383.118C496.981 390.489 476.046 390.489 463.225 383.118C456.97 379.464 453.749 374.695 453.687 369.926H453.625V356.176C453.625 361.069 456.846 365.962 463.225 369.616Z" fill="url(#paint67_linear_193_1160)"/>
<path d="M463.229 383.118C476.05 390.489 496.985 390.489 509.744 383.118C512.345 381.57 514.389 379.898 515.938 378.102L511.726 409.256C511.726 413.034 509.31 416.75 504.355 419.599C494.569 425.298 478.466 425.298 468.618 419.599C463.725 416.75 461.247 413.034 461.247 409.256L457.097 378.102C458.646 379.898 460.69 381.57 463.229 383.118Z" fill="url(#paint68_linear_193_1160)"/>
<path d="M507.513 341.62C505.531 338.152 502.93 334.869 501.753 331.215C500.266 326.57 501.629 322.791 503.797 320.748C505.965 318.642 508.938 317.713 511.105 315.669C516.68 310.466 516.37 297.459 510.486 286.001C508.566 282.347 506.212 278.878 504.664 275.162C500.328 264.509 503.921 255.837 501.753 245.432C499.399 233.912 488.994 221.338 480.323 219.418C472.333 217.622 467.13 224.188 466.015 233.106C464.962 242.087 467.192 253.05 469.979 263.827C471.032 267.791 472.085 272.251 470.598 274.542C468.802 277.206 464.529 275.348 461.246 275.286C457.22 275.162 454.309 278.135 453.752 282.904C453.194 287.673 454.99 294.053 458.335 299.317C461.927 304.954 467.625 310.714 467.564 316.102C467.502 320.5 463.29 320.871 461.741 324.092C460.379 327.003 461.37 332.082 463.538 336.603C470.289 350.415 486.145 364.042 496.302 366.147C507.637 368.501 518.414 360.635 507.513 341.62Z" fill="url(#paint69_linear_193_1160)"/>
<path d="M471.218 285.568L472.209 284.948L483.791 304.335V243.389H484.968V305.512L503.178 307.246L503.116 308.423L484.968 306.688V371.722H483.791V306.626H483.729L471.218 285.568Z" fill="#4CFFD5"/>
<path style="mix-blend-mode:overlay" d="M171.874 72.7529L263.665 125.709C267.381 127.877 270.416 125.585 270.416 120.63V66.6212C270.416 61.6662 267.381 55.968 263.665 53.8002L171.874 0.782002C168.158 -1.32386 165.185 0.967811 165.185 5.92278V59.87C165.185 64.825 168.158 70.5851 171.874 72.7529Z" fill="url(#paint70_linear_193_1160)"/>
<path style="mix-blend-mode:overlay" d="M165.185 32.8657L270.416 93.626V70.4615L165.185 9.70117V32.8657Z" fill="url(#paint71_linear_193_1160)"/>
<path style="mix-blend-mode:overlay" d="M213.434 74.1765L255.984 98.7655V89.9705L213.434 65.4434V74.1765Z" fill="url(#paint72_linear_193_1160)"/>
<path style="mix-blend-mode:overlay" d="M204.701 61.9132L205.196 62.2229C205.238 62.2642 205.279 62.3467 205.32 62.4706C205.403 62.5945 205.506 62.739 205.63 62.9042C205.754 63.028 205.878 63.1726 206.001 63.3377C206.125 63.5029 206.249 63.6061 206.373 63.6474V64.2049C206.29 64.1223 206.187 64.0397 206.063 63.9571C205.939 63.8332 205.816 63.7094 205.692 63.5855C205.609 63.4616 205.506 63.3377 205.382 63.2139C205.299 63.09 205.238 62.9868 205.196 62.9042V66.3727L206.187 66.9301V67.4256L203.834 66.063V65.5675L204.701 66.063V61.9132ZM202.719 64.4526C202.677 64.2461 202.595 64.0603 202.471 63.8952C202.347 63.73 202.223 63.5442 202.099 63.3377C201.934 63.1726 201.79 63.0074 201.666 62.8422C201.542 62.7184 201.418 62.5738 201.294 62.4087C201.129 62.2435 200.985 62.0577 200.861 61.8512C200.737 61.6861 200.634 61.5003 200.551 61.2938C200.468 61.0874 200.427 60.8603 200.427 60.6125C200.427 60.4473 200.468 60.3028 200.551 60.1789C200.592 60.0551 200.675 59.9725 200.799 59.9312C200.923 59.8899 201.067 59.8899 201.232 59.9312C201.397 59.9312 201.583 59.9931 201.79 60.117C201.996 60.2409 202.182 60.3854 202.347 60.5506C202.554 60.7157 202.719 60.8809 202.843 61.0461C202.966 61.2112 203.07 61.3557 203.152 61.4796C203.235 61.6448 203.276 61.748 203.276 61.7893L202.967 61.9751C202.967 61.9338 202.925 61.8512 202.843 61.7274C202.76 61.6035 202.677 61.4796 202.595 61.3557C202.512 61.2319 202.409 61.108 202.285 60.9841C202.161 60.8603 202.017 60.757 201.852 60.6744C201.728 60.5919 201.604 60.5299 201.48 60.4886C201.356 60.4886 201.253 60.5093 201.17 60.5506C201.088 60.5919 201.026 60.6538 200.985 60.7364C200.943 60.7777 200.923 60.8603 200.923 60.9841C200.923 61.1493 200.964 61.3145 201.046 61.4796C201.129 61.6448 201.232 61.81 201.356 61.9751C201.48 62.1403 201.625 62.3055 201.79 62.4706C201.914 62.6358 202.058 62.8009 202.223 62.9661C202.471 63.2552 202.657 63.5236 202.781 63.7713C202.946 64.0603 203.07 64.3081 203.152 64.5145C203.235 64.7623 203.297 64.9894 203.338 65.1958C203.338 65.4023 203.338 65.5881 203.338 65.7533L200.365 64.019V63.5235L202.843 64.9481C202.843 64.7829 202.801 64.6178 202.719 64.4526ZM196.897 60.5506C197.062 60.4267 197.289 60.4267 197.578 60.5506C197.454 60.4267 197.33 60.2822 197.206 60.117C197.082 59.9931 196.979 59.8486 196.897 59.6834C196.855 59.5183 196.814 59.3531 196.773 59.1879C196.732 59.0228 196.711 58.8576 196.711 58.6924C196.711 58.486 196.732 58.3002 196.773 58.135C196.855 58.0111 196.959 57.9286 197.082 57.8873C197.206 57.8047 197.372 57.784 197.578 57.8253C197.743 57.8666 197.929 57.9492 198.135 58.0731C198.301 58.1557 198.466 58.2795 198.631 58.4447C198.796 58.5686 198.941 58.7131 199.064 58.8783C199.188 59.0434 199.312 59.2086 199.436 59.3738C199.519 59.5389 199.601 59.7041 199.684 59.8693L199.374 60.0551C199.25 59.766 199.085 59.4976 198.879 59.2499C198.672 58.9608 198.445 58.7544 198.197 58.6305C198.073 58.5479 197.929 58.486 197.764 58.4447C197.64 58.4034 197.537 58.4034 197.454 58.4447C197.372 58.486 197.31 58.5479 197.268 58.6305C197.227 58.7131 197.206 58.837 197.206 59.0021C197.206 59.3325 197.289 59.6422 197.454 59.9312C197.661 60.2202 197.95 60.468 198.321 60.6744L198.507 60.7983V61.2938L198.321 61.1699C197.908 60.9635 197.599 60.9015 197.392 60.9841C197.186 61.0667 197.082 61.2938 197.082 61.6654C197.082 62.0371 197.186 62.388 197.392 62.7184C197.599 63.0074 197.867 63.2552 198.197 63.4616C198.528 63.6268 198.775 63.7094 198.941 63.7094C199.147 63.6681 199.312 63.5648 199.436 63.3997L199.746 63.9571C199.622 64.1636 199.415 64.2668 199.126 64.2668C198.879 64.2668 198.569 64.1636 198.197 63.9571C197.95 63.8332 197.743 63.6681 197.578 63.4616C197.372 63.2964 197.186 63.09 197.021 62.8422C196.897 62.6358 196.793 62.4087 196.711 62.1609C196.628 61.9132 196.587 61.6654 196.587 61.4177C196.587 61.0048 196.69 60.7157 196.897 60.5506Z" fill="url(#paint73_linear_193_1160)"/>
<path style="mix-blend-mode:overlay" d="M490.666 179.904L458.273 196.194C457.84 195.017 457.468 193.716 457.468 192.54V132.337L490.666 179.904ZM556.691 189.629V249.893C556.691 251.132 556.32 252.123 555.824 252.804L523.183 198.857L556.691 189.629ZM504.54 195.079L457.654 128.125L556.506 185.045L509.619 197.99C508.195 198.424 505.965 197.123 504.54 195.079ZM507.08 203.193L519.963 199.662L552.727 253.919C551.922 253.919 550.931 253.548 549.94 252.99L464.219 203.502C463.104 202.883 462.051 201.954 461.122 200.901L493.949 184.488L507.08 203.193Z" fill="url(#paint74_linear_193_1160)"/>
<defs>
<radialGradient id="paint0_radial_193_1160" cx="0" cy="0" r="1" gradientUnits="userSpaceOnUse" gradientTransform="translate(364.5 336.42) rotate(180) scale(273.7 273.7)">
<stop stop-color="white"/>
<stop offset="1" stop-color="white" stop-opacity="0"/>
</radialGradient>
<radialGradient id="paint1_radial_193_1160" cx="0" cy="0" r="1" gradientUnits="userSpaceOnUse" gradientTransform="translate(196.404 352.954) rotate(180) scale(43.2321 43.2321)">
<stop stop-color="#73EBFF"/>
<stop offset="1" stop-opacity="0"/>
</radialGradient>
<radialGradient id="paint2_radial_193_1160" cx="0" cy="0" r="1" gradientUnits="userSpaceOnUse" gradientTransform="translate(267.507 393.523) rotate(180) scale(43.2321 43.2321)">
<stop stop-color="#73EBFF"/>
<stop offset="1" stop-opacity="0"/>
</radialGradient>
<radialGradient id="paint3_radial_193_1160" cx="0" cy="0" r="1" gradientUnits="userSpaceOnUse" gradientTransform="translate(335.886 430.623) rotate(180) scale(43.2321 43.2321)">
<stop stop-color="#73EBFF"/>
<stop offset="1" stop-opacity="0"/>
</radialGradient>
<radialGradient id="paint4_radial_193_1160" cx="0" cy="0" r="1" gradientUnits="userSpaceOnUse" gradientTransform="translate(196.404 352.954) rotate(180) scale(43.2321 43.2321)">
<stop stop-color="#4CFFD5"/>
<stop offset="1" stop-opacity="0"/>
</radialGradient>
<radialGradient id="paint5_radial_193_1160" cx="0" cy="0" r="1" gradientUnits="userSpaceOnUse" gradientTransform="translate(267.507 393.523) rotate(180) scale(43.2321 43.2321)">
<stop stop-color="#4CFFD5"/>
<stop offset="1" stop-opacity="0"/>
</radialGradient>
<radialGradient id="paint6_radial_193_1160" cx="0" cy="0" r="1" gradientUnits="userSpaceOnUse" gradientTransform="translate(335.886 430.623) rotate(180) scale(43.2321 43.2321)">
<stop stop-color="#4CFFD5"/>
<stop offset="1" stop-opacity="0"/>
</radialGradient>
<linearGradient id="paint7_linear_193_1160" x1="237.775" y1="157.914" x2="195.534" y2="194.705" gradientUnits="userSpaceOnUse">
<stop stop-color="#55D1FF"/>
<stop offset="1" stop-color="#3A55CA"/>
</linearGradient>
<linearGradient id="paint8_linear_193_1160" x1="154.098" y1="323.719" x2="254.312" y2="377.728" gradientUnits="userSpaceOnUse">
<stop stop-color="white"/>
<stop offset="0.966" stop-color="#55D1FF"/>
</linearGradient>
<linearGradient id="paint9_linear_193_1160" x1="288.317" y1="310.898" x2="285.591" y2="288.538" gradientUnits="userSpaceOnUse">
<stop stop-color="white"/>
<stop offset="0.395" stop-color="#55D1FF"/>
<stop offset="0.966" stop-color="#55ACFF"/>
</linearGradient>
<linearGradient id="paint10_linear_193_1160" x1="23.2258" y1="203.872" x2="33.2596" y2="338.647" gradientUnits="userSpaceOnUse">
<stop stop-color="white"/>
<stop offset="0.449" stop-color="#55D0FE"/>
<stop offset="1" stop-color="#3A55CA"/>
</linearGradient>
<linearGradient id="paint11_linear_193_1160" x1="203.276" y1="168.939" x2="209.222" y2="188.635" gradientUnits="userSpaceOnUse">
<stop stop-color="white"/>
<stop offset="0.966" stop-color="#55D1FF"/>
</linearGradient>
<linearGradient id="paint12_linear_193_1160" x1="203.895" y1="171.415" x2="193.118" y2="194.518" gradientUnits="userSpaceOnUse">
<stop stop-color="white"/>
<stop offset="0.966" stop-color="#55D1FF"/>
</linearGradient>
<linearGradient id="paint13_linear_193_1160" x1="306.029" y1="252.555" x2="346.908" y2="108.304" gradientUnits="userSpaceOnUse">
<stop stop-color="#FCA730" stop-opacity="0.82"/>
<stop offset="0.966" stop-color="white" stop-opacity="0"/>
</linearGradient>
<linearGradient id="paint14_linear_193_1160" x1="347.084" y1="442.701" x2="403.447" y2="402.071" gradientUnits="userSpaceOnUse">
<stop stop-color="#7DE7E8"/>
<stop offset="0.891" stop-color="#0084E9"/>
</linearGradient>
<linearGradient id="paint15_linear_193_1160" x1="318.347" y1="425.049" x2="396.14" y2="422.262" gradientUnits="userSpaceOnUse">
<stop stop-color="#7DE7E8"/>
<stop offset="0.891" stop-color="#0084E9"/>
</linearGradient>
<linearGradient id="paint16_linear_193_1160" x1="345.97" y1="462.522" x2="409.27" y2="412.725" gradientUnits="userSpaceOnUse">
<stop offset="0.03" stop-color="#3852C3"/>
<stop offset="0.618" stop-color="#1B2062"/>
<stop offset="1" stop-color="#0F123B"/>
</linearGradient>
<linearGradient id="paint17_linear_193_1160" x1="399.856" y1="402.751" x2="401.59" y2="402.813" gradientUnits="userSpaceOnUse">
<stop stop-color="white"/>
<stop offset="1" stop-color="white" stop-opacity="0"/>
</linearGradient>
<linearGradient id="paint18_linear_193_1160" x1="316.177" y1="441.092" x2="399.482" y2="444.684" gradientUnits="userSpaceOnUse">
<stop stop-color="white"/>
<stop offset="1" stop-color="white" stop-opacity="0"/>
</linearGradient>
<linearGradient id="paint19_linear_193_1160" x1="322.745" y1="418.485" x2="441.478" y2="421.458" gradientUnits="userSpaceOnUse">
<stop stop-color="white"/>
<stop offset="0.966" stop-color="white" stop-opacity="0"/>
</linearGradient>
<linearGradient id="paint20_linear_193_1160" x1="334.823" y1="384.606" x2="399.114" y2="431.182" gradientUnits="userSpaceOnUse">
<stop offset="0.03" stop-color="#3852C3"/>
<stop offset="0.618" stop-color="#1B2062"/>
<stop offset="1" stop-color="#0F123B"/>
</linearGradient>
<linearGradient id="paint21_linear_193_1160" x1="323.986" y1="404.673" x2="373.535" y2="421.581" gradientUnits="userSpaceOnUse">
<stop stop-color="#7DE7E8"/>
<stop offset="0.891" stop-color="#0084E9"/>
</linearGradient>
<linearGradient id="paint22_linear_193_1160" x1="185.687" y1="360.326" x2="269.178" y2="334.932" gradientUnits="userSpaceOnUse">
<stop stop-color="#7DE7E8"/>
<stop offset="0.891" stop-color="#0084E9"/>
</linearGradient>
<linearGradient id="paint23_linear_193_1160" x1="178.252" y1="347.381" x2="256.045" y2="344.594" gradientUnits="userSpaceOnUse">
<stop stop-color="white"/>
<stop offset="0.891" stop-color="#0084E9"/>
</linearGradient>
<linearGradient id="paint24_linear_193_1160" x1="204.887" y1="384.171" x2="264.471" y2="340.567" gradientUnits="userSpaceOnUse">
<stop offset="0.03" stop-color="#3852C3"/>
<stop offset="0.618" stop-color="#1B2062"/>
<stop offset="1" stop-color="#0F123B"/>
</linearGradient>
<linearGradient id="paint25_linear_193_1160" x1="259.826" y1="325.083" x2="261.498" y2="325.145" gradientUnits="userSpaceOnUse">
<stop stop-color="white"/>
<stop offset="1" stop-color="white" stop-opacity="0"/>
</linearGradient>
<linearGradient id="paint26_linear_193_1160" x1="176.085" y1="363.422" x2="259.452" y2="367.014" gradientUnits="userSpaceOnUse">
<stop stop-color="white"/>
<stop offset="1" stop-color="white" stop-opacity="0"/>
</linearGradient>
<linearGradient id="paint27_linear_193_1160" x1="182.713" y1="340.817" x2="301.384" y2="343.79" gradientUnits="userSpaceOnUse">
<stop stop-color="white"/>
<stop offset="0.966" stop-color="white" stop-opacity="0"/>
</linearGradient>
<linearGradient id="paint28_linear_193_1160" x1="194.73" y1="306.938" x2="259.083" y2="353.514" gradientUnits="userSpaceOnUse">
<stop offset="0.03" stop-color="#3852C3"/>
<stop offset="0.618" stop-color="#1B2062"/>
<stop offset="1" stop-color="#0F123B"/>
</linearGradient>
<linearGradient id="paint29_linear_193_1160" x1="197.144" y1="323.412" x2="231.829" y2="332.827" gradientUnits="userSpaceOnUse">
<stop stop-color="#7DE7E8"/>
<stop offset="0.891" stop-color="#0084E9"/>
</linearGradient>
<linearGradient id="paint30_linear_193_1160" x1="278.522" y1="402.874" x2="334.637" y2="362.368" gradientUnits="userSpaceOnUse">
<stop stop-color="#7DE7E8"/>
<stop offset="0.891" stop-color="#0084E9"/>
</linearGradient>
<linearGradient id="paint31_linear_193_1160" x1="248.295" y1="386.213" x2="326.088" y2="383.426" gradientUnits="userSpaceOnUse">
<stop stop-color="white"/>
<stop offset="0.891" stop-color="#0084E9"/>
</linearGradient>
<linearGradient id="paint32_linear_193_1160" x1="269.727" y1="422.198" x2="340.026" y2="380.948" gradientUnits="userSpaceOnUse">
<stop offset="0.03" stop-color="#3852C3"/>
<stop offset="0.618" stop-color="#1B2062"/>
<stop offset="1" stop-color="#0F123B"/>
</linearGradient>
<linearGradient id="paint33_linear_193_1160" x1="329.867" y1="363.917" x2="331.539" y2="363.979" gradientUnits="userSpaceOnUse">
<stop stop-color="white"/>
<stop offset="1" stop-color="white" stop-opacity="0"/>
</linearGradient>
<linearGradient id="paint34_linear_193_1160" x1="246.126" y1="402.256" x2="329.493" y2="405.848" gradientUnits="userSpaceOnUse">
<stop stop-color="white"/>
<stop offset="1" stop-color="white" stop-opacity="0"/>
</linearGradient>
<linearGradient id="paint35_linear_193_1160" x1="252.758" y1="379.649" x2="371.429" y2="382.622" gradientUnits="userSpaceOnUse">
<stop stop-color="white"/>
<stop offset="0.966" stop-color="white" stop-opacity="0"/>
</linearGradient>
<linearGradient id="paint36_linear_193_1160" x1="264.771" y1="345.77" x2="329.061" y2="392.346" gradientUnits="userSpaceOnUse">
<stop offset="0.03" stop-color="#3852C3"/>
<stop offset="0.618" stop-color="#1B2062"/>
<stop offset="1" stop-color="#0F123B"/>
</linearGradient>
<linearGradient id="paint37_linear_193_1160" x1="15544.5" y1="16775.3" x2="17451.6" y2="17078.6" gradientUnits="userSpaceOnUse">
<stop stop-color="#7DE7E8"/>
<stop offset="0.891" stop-color="#0084E9"/>
</linearGradient>
<radialGradient id="paint38_radial_193_1160" cx="0" cy="0" r="1" gradientUnits="userSpaceOnUse" gradientTransform="translate(521.509 264.14) rotate(180) scale(23.3503 23.3503)">
<stop stop-color="#D3FFE6"/>
<stop offset="0.732" stop-color="#2A8BFF"/>
<stop offset="1" stop-color="#DAA7F6"/>
</radialGradient>
<radialGradient id="paint39_radial_193_1160" cx="0" cy="0" r="1" gradientUnits="userSpaceOnUse" gradientTransform="translate(534.641 299.012) rotate(180) scale(12.0158 12.0158)">
<stop stop-color="#D3FFE6"/>
<stop offset="0.732" stop-color="#2A8BFF"/>
<stop offset="1" stop-color="#DAA7F6"/>
</radialGradient>
<linearGradient id="paint40_linear_193_1160" x1="546.227" y1="98.1446" x2="263.546" y2="265.746" gradientUnits="userSpaceOnUse">
<stop stop-color="white" stop-opacity="0"/>
<stop offset="1"/>
</linearGradient>
<linearGradient id="paint41_linear_193_1160" x1="-215.847" y1="213.347" x2="-78.8424" y2="578.528" gradientUnits="userSpaceOnUse">
<stop stop-color="#DB6FF7"/>
<stop offset="1" stop-color="#660ACD"/>
</linearGradient>
<linearGradient id="paint42_linear_193_1160" x1="-219.13" y1="155.746" x2="-117.12" y2="525.758" gradientUnits="userSpaceOnUse">
<stop stop-color="white"/>
<stop offset="1" stop-color="white" stop-opacity="0"/>
</linearGradient>
<linearGradient id="paint43_linear_193_1160" x1="299.162" y1="36.6408" x2="299.162" y2="344.042" gradientUnits="userSpaceOnUse">
<stop stop-color="#CA13DE"/>
<stop offset="1" stop-color="#3E0A77"/>
</linearGradient>
<linearGradient id="paint44_linear_193_1160" x1="-137.557" y1="36.6397" x2="-137.557" y2="343.972" gradientUnits="userSpaceOnUse">
<stop stop-color="#CA13DE"/>
<stop offset="1" stop-color="#3E0A77"/>
</linearGradient>
<linearGradient id="paint45_linear_193_1160" x1="-154.838" y1="66.8646" x2="-154.838" y2="385.779" gradientUnits="userSpaceOnUse">
<stop stop-color="white"/>
<stop offset="1" stop-color="white"/>
</linearGradient>
<linearGradient id="paint46_linear_193_1160" x1="-148.459" y1="37.6948" x2="-148.459" y2="349.115" gradientUnits="userSpaceOnUse">
<stop stop-color="#FCC63E"/>
<stop offset="1" stop-color="#FCA730"/>
</linearGradient>
<linearGradient id="paint47_linear_193_1160" x1="346.294" y1="47.7285" x2="349.825" y2="67.8581" gradientUnits="userSpaceOnUse">
<stop stop-color="#FFEC00"/>
<stop offset="1" stop-color="white"/>
</linearGradient>
<linearGradient id="paint48_linear_193_1160" x1="653.318" y1="447.966" x2="759.788" y2="161.941" gradientUnits="userSpaceOnUse">
<stop stop-color="#FFEC00"/>
<stop offset="1" stop-color="white"/>
</linearGradient>
<linearGradient id="paint49_linear_193_1160" x1="274.511" y1="131.095" x2="274.511" y2="171.849" gradientUnits="userSpaceOnUse">
<stop stop-color="#CA13DE"/>
<stop offset="1" stop-color="#3E0A77"/>
</linearGradient>
<linearGradient id="paint50_linear_193_1160" x1="275.561" y1="146.208" x2="275.871" y2="182.131" gradientUnits="userSpaceOnUse">
<stop stop-color="#DB6FF7"/>
<stop offset="1" stop-color="#660ACD"/>
</linearGradient>
<linearGradient id="paint51_linear_193_1160" x1="320.528" y1="18.7415" x2="323.501" y2="24.13" gradientUnits="userSpaceOnUse">
<stop stop-color="#CA13DE"/>
<stop offset="1" stop-color="#3E0A77"/>
</linearGradient>
<linearGradient id="paint52_linear_193_1160" x1="322.696" y1="18.9273" x2="322.882" y2="22.5197" gradientUnits="userSpaceOnUse">
<stop stop-color="#DB6FF7"/>
<stop offset="1" stop-color="#660ACD"/>
</linearGradient>
<linearGradient id="paint53_linear_193_1160" x1="117.252" y1="234.408" x2="335.208" y2="461.346" gradientUnits="userSpaceOnUse">
<stop stop-color="white"/>
<stop offset="0.966" stop-color="white" stop-opacity="0"/>
</linearGradient>
<linearGradient id="paint54_linear_193_1160" x1="234.685" y1="119.762" x2="454.376" y2="348.557" gradientUnits="userSpaceOnUse">
<stop stop-color="white"/>
<stop offset="0.966" stop-color="white" stop-opacity="0"/>
</linearGradient>
<linearGradient id="paint55_linear_193_1160" x1="112.235" y1="239.238" x2="330.192" y2="466.176" gradientUnits="userSpaceOnUse">
<stop stop-color="white"/>
<stop offset="0.966" stop-color="white" stop-opacity="0"/>
</linearGradient>
<linearGradient id="paint56_linear_193_1160" x1="140.664" y1="211.923" x2="358.62" y2="438.861" gradientUnits="userSpaceOnUse">
<stop stop-color="white"/>
<stop offset="0.966" stop-color="white" stop-opacity="0"/>
</linearGradient>
<linearGradient id="paint57_linear_193_1160" x1="65.411" y1="-94.9126" x2="-32.2019" y2="211.305" gradientUnits="userSpaceOnUse">
<stop stop-color="#FFEC00"/>
<stop offset="1" stop-color="white" stop-opacity="0"/>
</linearGradient>
<linearGradient id="paint58_linear_193_1160" x1="-252.518" y1="110.038" x2="-109.133" y2="589.865" gradientUnits="userSpaceOnUse">
<stop stop-color="white"/>
<stop offset="0.966" stop-color="white" stop-opacity="0"/>
</linearGradient>
<linearGradient id="paint59_linear_193_1160" x1="343.255" y1="265.562" x2="380.727" y2="314.059" gradientUnits="userSpaceOnUse">
<stop stop-color="white"/>
<stop offset="0.966" stop-color="white" stop-opacity="0"/>
</linearGradient>
<linearGradient id="paint60_linear_193_1160" x1="317.798" y1="252.244" x2="355.765" y2="303.404" gradientUnits="userSpaceOnUse">
<stop stop-color="white"/>
<stop offset="0.966" stop-color="white" stop-opacity="0"/>
</linearGradient>
<linearGradient id="paint61_linear_193_1160" x1="289.434" y1="235.646" x2="323.189" y2="282.099" gradientUnits="userSpaceOnUse">
<stop stop-color="white"/>
<stop offset="0.966" stop-color="white" stop-opacity="0"/>
</linearGradient>
<linearGradient id="paint62_linear_193_1160" x1="247.933" y1="133.759" x2="407.731" y2="269.091" gradientUnits="userSpaceOnUse">
<stop stop-color="white"/>
<stop offset="0.966" stop-color="white" stop-opacity="0"/>
</linearGradient>
<linearGradient id="paint63_linear_193_1160" x1="256.851" y1="318.828" x2="407.73" y2="437.623" gradientUnits="userSpaceOnUse">
<stop stop-color="white"/>
<stop offset="1" stop-color="white" stop-opacity="0"/>
</linearGradient>
<linearGradient id="paint64_linear_193_1160" x1="618.69" y1="255.466" x2="378.87" y2="378.163" gradientUnits="userSpaceOnUse">
<stop stop-color="white" stop-opacity="0"/>
<stop offset="1"/>
</linearGradient>
<linearGradient id="paint65_linear_193_1160" x1="453.381" y1="375.19" x2="518.043" y2="375.19" gradientUnits="userSpaceOnUse">
<stop stop-color="#DB6FF7"/>
<stop offset="1" stop-color="#660ACD"/>
</linearGradient>
<linearGradient id="paint66_linear_193_1160" x1="478.278" y1="345.212" x2="478.278" y2="376.8" gradientUnits="userSpaceOnUse">
<stop stop-color="#CA13DE"/>
<stop offset="1" stop-color="#3E0A77"/>
</linearGradient>
<linearGradient id="paint67_linear_193_1160" x1="456.288" y1="388.631" x2="515.686" y2="388.631" gradientUnits="userSpaceOnUse">
<stop stop-color="#CA13DE"/>
<stop offset="1" stop-color="#3E0A77"/>
</linearGradient>
<linearGradient id="paint68_linear_193_1160" x1="460.875" y1="423.873" x2="514.575" y2="423.873" gradientUnits="userSpaceOnUse">
<stop stop-color="#DB6FF7"/>
<stop offset="1" stop-color="#660ACD"/>
</linearGradient>
<linearGradient id="paint69_linear_193_1160" x1="281.628" y1="249.086" x2="314.889" y2="400.089" gradientUnits="userSpaceOnUse">
<stop stop-color="#D3FFE6"/>
<stop offset="1" stop-color="#2A8BFF"/>
</linearGradient>
<linearGradient id="paint70_linear_193_1160" x1="267.567" y1="56.0299" x2="136.88" y2="-19.4095" gradientUnits="userSpaceOnUse">
<stop stop-color="white"/>
<stop offset="0.966" stop-color="white" stop-opacity="0"/>
</linearGradient>
<linearGradient id="paint71_linear_193_1160" x1="270.416" y1="70.4615" x2="165.185" y2="9.70117" gradientUnits="userSpaceOnUse">
<stop stop-color="white"/>
<stop offset="0.966" stop-color="white" stop-opacity="0"/>
</linearGradient>
<linearGradient id="paint72_linear_193_1160" x1="209.903" y1="71.9468" x2="254.684" y2="98.2081" gradientUnits="userSpaceOnUse">
<stop stop-color="white"/>
<stop offset="0.966" stop-color="white" stop-opacity="0"/>
</linearGradient>
<linearGradient id="paint73_linear_193_1160" x1="187.978" y1="63.028" x2="204.639" y2="71.3896" gradientUnits="userSpaceOnUse">
<stop stop-color="white"/>
<stop offset="0.966" stop-color="white" stop-opacity="0"/>
</linearGradient>
<linearGradient id="paint74_linear_193_1160" x1="568.15" y1="116.295" x2="427.491" y2="128.125" gradientUnits="userSpaceOnUse">
<stop stop-color="white"/>
<stop offset="0.966" stop-color="white" stop-opacity="0"/>
</linearGradient>
</defs>
</svg>
