<svg width="124" height="129" viewBox="0 0 124 129" fill="none" xmlns="http://www.w3.org/2000/svg">
<path d="M93.9365 15.9088C84.8645 8.47988 69.828 0.265149 57.9703 0.300865C52.3271 -0.0562963 45.4339 3.72962 40.7551 6.51548C37.2906 8.5513 34.0047 10.8014 30.576 12.9444C27.6115 13.4801 27.2186 13.3373 24.397 14.4088C22.0041 14.5873 21.3612 14.7302 19.0753 15.516C0.681503 21.9092 -0.532847 40.1958 1.39583 57.7682C1.68156 60.1612 2.00301 62.5542 2.36017 64.9472C1.03867 81.6266 3.86024 89.377 16.3609 101.842H17.4681C20.0397 101.806 24.6113 102.056 26.8972 101.556C28.3615 103.699 29.7545 105.985 31.1117 108.199C37.2192 117.807 51.7556 125.593 62.3276 128.451L62.7919 128.558C72.8639 127.665 81.543 126.129 91.1149 122.807C94.5079 121.629 97.4009 119.521 99.5796 116.664C101.08 114.7 102.401 112.057 102.758 109.628L105.83 87.7341L107.509 76.3049C108.199 76.162 108.89 75.9596 109.58 75.6977C111.795 74.8763 113.759 73.5548 115.473 71.9832C121.009 69.2331 124.652 66.3758 123.902 59.4469L121.259 36.1599C120.295 27.588 115.295 22.6235 106.509 22.6949L100.937 22.7306C98.7939 20.1234 96.5437 18.0161 93.9365 15.9088Z" fill="white"/>
<path d="M113.545 47.4818C112.866 54.5894 107.187 60.1611 100.08 60.7326C95.258 61.1254 90.5792 59.1253 87.5433 55.4108L87.1862 55.018L87.7219 54.9822C95.508 54.8394 106.58 51.4821 113.152 47.2675L113.58 46.9818L113.545 47.4818ZM85.5432 52.1964C84.8289 50.6249 84.3646 48.9462 84.2217 47.1961C83.936 43.3031 85.186 39.4814 87.7219 36.4813C90.2577 33.5168 93.8294 31.6953 97.7224 31.3738C101.651 31.0524 105.473 32.3025 108.437 34.8383C111.116 37.0884 112.902 40.2315 113.438 43.6959L113.473 43.8031L113.366 43.9102C112.723 44.696 111.866 45.4103 111.009 46.0175C108.009 48.1604 103.901 49.8391 100.401 50.9106C96.4366 52.1249 89.722 53.4464 85.6861 52.3392L85.5789 52.3035L85.5432 52.1964Z" fill="#B9195E"/>
<path d="M114.51 41.303C114.224 40.4458 113.295 39.9815 112.545 39.6957L112.402 39.66L112.367 39.5528C112.057 38.9338 111.712 38.3385 111.331 37.767L111.009 37.3027H111.581C113.617 37.3742 117.581 37.8028 118.295 40.16C119.153 42.9102 114.902 45.9103 113.009 47.1247C106.259 51.4106 95.6514 54.6608 87.6509 54.8037C86.008 54.8394 84.1507 54.768 82.5078 54.3036C78.6862 53.2322 78.7933 50.2677 81.2577 47.7319C81.9363 47.0533 82.6864 46.4461 83.4721 45.8746L83.9364 45.5532V46.1246C83.9364 46.5056 83.9603 46.8747 84.0079 47.2318L84.115 48.3033L84.0436 48.3748C83.5436 49.0534 83.0435 49.9463 83.2936 50.8034C83.865 52.625 87.3295 52.9107 88.8296 52.9464C92.6155 53.0536 96.83 52.2321 100.437 51.1249C104.045 50.0177 108.009 48.3747 111.116 46.1603C112.331 45.3032 115.045 43.1245 114.51 41.303Z" fill="#B9195E"/>
<path d="M107.33 49.2679C109.258 48.4107 111.008 47.4821 112.58 46.482C114.151 45.482 118.223 42.589 117.545 40.3746C117.08 38.7673 114.294 38.303 112.473 38.1602C112.639 38.4459 112.806 38.7435 112.973 39.0531C113.937 39.4102 114.902 40.0531 115.223 41.0889C115.902 43.339 113.151 45.6606 111.544 46.8035C110.258 47.7321 108.83 48.5536 107.33 49.2679ZM83.2927 48.0893L83.2212 47.3035C83.2212 47.2321 83.2094 47.1487 83.1855 47.0535C82.7093 47.4345 82.2569 47.8392 81.8283 48.2678C79.7568 50.4108 79.5068 52.6609 82.7212 53.5538C84.2927 53.9824 86.0428 54.0896 87.6501 54.0539C89.543 54.0181 91.6146 53.8039 93.6861 53.4467C92.0432 53.661 90.4002 53.7681 88.793 53.7324C86.8286 53.6967 83.257 53.2681 82.5427 51.0537C82.2212 49.9822 82.6855 48.9107 83.2927 48.0893Z" fill="#D11196"/>
<path d="M61.1495 34.5879C64.0426 34.5879 66.3641 36.9094 66.3641 39.7667C66.3641 42.624 64.0426 44.9456 61.1495 44.9456C58.2923 44.9456 55.9707 42.624 55.9707 39.7667C55.9707 36.9094 58.2923 34.5879 61.1495 34.5879Z" fill="#00CCFF"/>
<path d="M45.8984 55.9468C45.8984 62.4114 51.113 67.626 57.5776 67.626C64.0065 67.626 69.2568 62.4114 69.2568 55.9468C69.2568 49.5179 64.0065 44.2676 57.5776 44.2676C51.113 44.2676 45.8984 49.5179 45.8984 55.9468Z" fill="#F7BB22"/>
<path fill-rule="evenodd" clip-rule="evenodd" d="M55.9356 73.0896C52.7926 72.6967 49.6138 72.3038 46.5065 71.8038C45.5541 71.6609 44.6016 71.5061 43.6492 71.3395C39.0061 70.4823 36.9703 67.0893 35.9702 62.8747C35.2202 59.696 35.0773 56.053 34.8273 52.6956C34.613 48.9812 34.1844 45.4452 34.4701 42.4094L35.2202 39.3378C39.5061 34.5518 44.8278 30.7659 50.971 28.9444C51.3758 28.8015 51.7925 28.6825 52.2211 28.5872C42.4706 29.873 38.7918 32.9089 32.7915 38.6949L31.3628 43.3023C33.1844 42.0879 33.3987 41.4093 34.0773 39.3735C33.8987 41.4093 33.7915 42.7665 32.0772 43.9452L30.9342 44.7309L21.648 51.5527C19.3622 53.2314 20.648 56.1958 21.1123 58.4816L21.1837 58.6959C19.3265 57.6245 17.1835 57.053 14.6477 57.2316C23.0053 59.4817 25.7554 65.6606 30.2199 72.4467C34.3273 81.6972 33.0772 85.0188 32.2557 94.6621C33.4344 98.0552 34.9345 102.091 35.6488 103.555C38.4346 109.377 40.9348 112.842 44.2207 116.413C39.1132 113.163 35.8988 110.092 33.7201 106.77C32.1843 104.306 29.9342 100.627 28.2198 98.3409C26.0054 99.5196 23.8267 99.0552 17.755 99.1267C11.3975 92.7692 8.07588 89.3761 6.00434 80.3757C4.18282 72.5895 5.18288 65.1249 4.32569 57.2316C2.64703 41.8022 3.78994 26.0871 20.6123 17.6938C13.1833 22.7298 9.68311 29.2658 8.54019 36.3733C7.82587 41.0522 8.64735 50.9098 11.6475 54.6957C9.75455 47.4096 8.96878 39.9807 10.7903 33.3017C13.8619 28.6229 18.7193 24.7656 25.7554 22.194C19.6836 24.1227 16.9335 24.9442 12.8261 28.0515C14.3619 25.2656 16.4692 22.6583 19.3265 20.3725C20.4337 19.4439 21.6123 18.5867 22.7552 17.6938C25.4339 16.658 28.4698 15.8722 31.8986 15.2651C39.2204 10.7291 50.8639 2.22866 58.2571 2.76441C68.8291 2.69297 83.2227 10.0148 92.7232 17.7652C95.2948 19.8725 97.5092 22.0154 99.1879 24.0155C97.9021 23.2655 95.2234 22.8012 92.3304 22.4083C93.759 23.5512 95.0091 24.5156 96.0806 25.2299L107.01 25.1585C114.617 25.087 118.332 29.2658 119.153 36.3019L121.76 59.6603C122.403 65.4106 119.225 67.3393 114.439 69.6608C110.438 73.4825 107.224 73.5896 105.617 74.0539L103.688 87.3046L100.617 109.163C100.081 112.306 97.2949 117.985 90.6874 120.271C95.0805 116.806 97.6164 113.949 98.1164 108.127L100.402 86.8046L101.224 79.4828C101.474 77.0183 101.224 76.8041 100.545 74.4468L88.973 74.8397C89.4374 77.6255 89.9017 78.8042 89.1873 81.7329C89.2231 79.2328 87.2587 75.4468 86.2229 73.0539C85.6514 71.4466 84.9014 71.018 83.5442 70.0894C84.6514 69.2679 85.7943 69.2322 87.0801 69.1608L102.902 68.4465C108.224 68.1965 113.153 67.625 118.153 65.3392C114.403 66.4821 108.26 66.4821 102.867 66.7321C86.5086 67.4107 54.7212 68.4108 54.6141 68.4108C54.114 68.3155 53.6259 68.2322 53.1497 68.1607C45.0064 66.6249 44.8278 57.2316 44.3278 49.4455C43.9349 43.3737 43.0777 37.7663 45.6136 34.0875C40.5419 37.5163 41.7205 44.1595 42.1848 51.5527C42.4706 55.8029 42.6492 60.5175 44.0778 64.1605C45.2564 67.2321 47.2923 69.5537 51.0067 70.2323C51.4353 70.3275 51.8639 70.4109 52.2925 70.4823C52.6973 70.5537 53.1021 70.6252 53.5069 70.6966L82.3298 69.3751C80.1511 70.1608 78.0082 71.7324 76.0795 72.9824C73.0793 74.2682 71.5435 75.1968 68.1862 75.554C59.0429 76.5183 51.0424 77.0898 41.3276 75.9469C40.1371 75.804 39.0418 75.6254 38.0418 75.4111L33.3272 75.5897C32.8986 74.3039 32.3629 73.0181 31.7914 71.7324L31.7557 71.6252L31.6486 71.4823C29.0413 67.5179 26.5411 62.8033 22.9338 59.8746L22.5052 57.8388C22.1123 55.3743 22.0052 54.6243 24.0053 53.0885L33.3272 45.7667C33.3272 48.2311 33.613 50.9455 33.7915 53.7314C33.9701 56.9459 34.1487 60.4103 34.7916 63.4819C35.7559 67.875 37.7917 71.5181 42.5777 72.3753L43.0063 72.4467C46.7208 73.1253 52.0425 72.9824 55.9356 73.0896ZM86.0086 80.84C84.6871 80.8757 84.5442 80.6614 83.3299 80.1614C83.7228 79.1613 83.9014 78.9827 84.58 78.0898C85.4371 79.2685 85.5086 79.4828 86.0086 80.84ZM46.8279 118.842C52.6497 120.521 58.8643 122.842 64.8646 123.414L77.3296 124.628L63.436 125.878C57.1499 124.199 52.6497 121.664 46.8279 118.842ZM15.6477 69.5537C18.6479 76.7326 24.7553 86.6617 21.1837 94.5907C25.4697 90.2691 24.291 88.519 23.791 83.3044C20.6123 80.8757 20.1122 77.947 19.1836 73.0181C18.755 70.768 17.6121 70.9109 15.6477 69.5537ZM61.4359 87.8404C58.7214 88.7333 58.3643 88.8404 56.0427 90.5548C58.6143 87.1617 57.3642 87.2689 61.4359 87.8404ZM95.7948 90.9477C94.6876 89.3404 94.4733 89.1618 92.6518 87.8761C96.2234 88.8047 95.2591 88.3404 95.7948 90.9477ZM66.7219 96.5194C66.9005 96.5551 70.9364 101.341 70.9364 101.341L66.2933 98.3766C63.7931 96.3408 62.3288 93.1264 60.543 90.3405C63.4717 91.2691 63.936 91.2334 67.0433 91.2334L75.4366 90.1262C77.7939 90.4476 80.3654 91.5906 82.687 92.1977C76.901 91.5191 75.6866 91.4477 70.0077 92.5549L75.7581 94.305C82.7584 96.0908 85.1871 96.8408 89.866 90.4476C87.2944 90.5905 86.2586 90.8048 83.937 91.9834C86.0086 90.5548 86.6872 89.6976 89.1159 89.019L93.2947 89.6976L90.366 94.055C89.5802 98.7695 89.7231 104.02 84.9371 106.163C86.0443 105.056 86.2229 105.02 86.8658 103.591L83.3656 105.627C77.0796 104.663 76.7581 105.27 71.5078 101.698C76.901 104.591 81.2941 103.948 83.0799 104.02C85.33 102.877 86.7586 102.591 87.0444 100.234C86.1872 99.0195 86.1515 98.4123 84.7585 98.0195C85.1157 98.8052 85.4014 99.091 85.33 99.9482C78.0439 100.305 66.7933 96.5194 66.7219 96.5194ZM87.8658 110.592C85.08 110.806 83.9013 111.27 81.6155 112.163C79.8297 112.842 77.6867 112.163 75.7938 111.949C80.294 111.306 83.2227 108.556 87.8658 110.592ZM87.723 55.2672C90.616 58.7674 95.1519 60.8746 100.045 60.4818C107.153 59.9103 112.617 54.3029 113.296 47.4811C106.474 51.8384 95.2591 55.0886 87.723 55.2672ZM84.4728 47.2311C84.6157 48.9454 85.08 50.6241 85.7586 52.1242C89.7231 53.1957 96.4734 51.8742 100.295 50.6955C103.76 49.624 107.938 47.9097 110.867 45.8381C111.403 45.4452 112.403 44.6595 113.189 43.7666C112.01 36.3733 105.331 31.0516 97.7592 31.6588C89.7945 32.266 83.8299 39.2663 84.4728 47.2311ZM94.8305 27.0871C94.4376 27.1228 94.0805 26.8371 94.0448 26.4085C94.0448 26.8371 93.759 27.1586 93.3304 27.1943C93.759 27.1586 94.0805 27.48 94.1519 27.8729C94.1162 27.48 94.4376 27.1228 94.8305 27.0871ZM102.831 29.7301C103.474 29.6587 104.045 30.1587 104.117 30.8016C104.081 30.1587 104.581 29.5873 105.26 29.5515C104.581 29.5873 104.01 29.1229 103.974 28.4801C103.974 29.1229 103.474 29.6587 102.831 29.7301ZM113.367 34.6232C112.76 34.659 114.082 34.659 114.367 34.8375C114.832 35.1233 115.189 35.6233 115.224 36.1948C115.224 35.7304 115.367 35.3018 115.653 34.9447C115.974 34.6232 117.51 34.3018 116.867 34.3732C116.224 34.4089 115.367 33.9446 115.082 33.1946C115.034 33.0755 115.01 32.9327 115.01 32.766C115.01 32.9089 114.998 33.0517 114.974 33.1946C114.796 33.9446 113.939 34.5518 113.367 34.6232ZM82.6156 54.0171C83.9371 54.3743 85.6514 54.5529 87.6515 54.5172C95.5448 54.3743 106.188 51.1241 112.831 46.8739C116.546 44.5166 118.582 42.0879 118.01 40.2307C117.51 38.6235 115.117 37.7306 111.581 37.6234C111.962 38.1949 112.308 38.802 112.617 39.4449C113.76 39.8378 114.546 40.4093 114.76 41.2307C115.689 44.1595 109.296 48.7311 100.509 51.4098C91.7589 54.0886 83.9013 53.8386 83.0084 50.9098C82.7584 50.0884 83.0799 49.1597 83.7942 48.1954C83.7466 47.8859 83.7109 47.5763 83.6871 47.2668C83.6632 46.8858 83.6513 46.5048 83.6513 46.1239C82.7941 46.7429 82.0679 47.3501 81.4726 47.9454C79.3297 50.1241 78.7939 52.9456 82.6156 54.0171ZM83.6871 43.4451C83.3656 43.4451 83.0799 43.1951 83.0442 42.8737C83.0442 43.1951 82.7942 43.4809 82.437 43.5166C82.7942 43.4809 83.0799 43.7309 83.1156 44.088C83.1156 43.7309 83.3656 43.4451 83.6871 43.4451ZM89.3302 61.7318C88.9373 61.7318 88.5802 61.4461 88.5444 61.0532C88.5802 61.4461 88.2587 61.8033 87.8658 61.8033C88.2587 61.8033 88.6159 62.089 88.6516 62.4819C88.6159 62.089 88.9373 61.7318 89.3302 61.7318ZM56.4713 12.1221C56.257 12.1578 56.0784 11.9792 56.0427 11.7649C56.0427 11.9792 55.8999 12.1935 55.6498 12.1935C55.8999 12.1935 56.0784 12.3364 56.1142 12.5506C56.1142 12.3364 56.257 12.1578 56.4713 12.1221ZM49.2924 16.158C49.0423 16.158 48.8638 15.9794 48.828 15.7651C48.828 15.9794 48.6852 16.1937 48.4352 16.1937C48.6852 16.1937 48.8638 16.3723 48.8995 16.5866C48.8638 16.3723 49.0423 16.158 49.2924 16.158ZM68.0076 8.19327C67.6148 8.22899 67.2576 7.94326 67.2219 7.55038C67.2576 7.94326 66.9362 8.2647 66.5433 8.30042C66.9362 8.2647 67.2933 8.58615 67.329 8.97903C67.2933 8.58615 67.6148 8.22899 68.0076 8.19327ZM63.3645 16.8009C63.0788 16.8009 62.8288 16.5866 62.7931 16.3008C62.7931 16.5866 62.5788 16.8366 62.2931 16.8723C62.5788 16.8366 62.8288 17.0509 62.8645 17.3366C62.8645 17.0509 63.0788 16.8009 63.3645 16.8009ZM53.114 12.0149C52.614 12.0506 52.1497 11.6935 52.1139 11.1934C52.1497 11.6935 51.7568 12.1221 51.2568 12.1578C51.7568 12.1221 52.1854 12.4792 52.2211 12.9792C52.2211 12.4792 52.614 12.0506 53.114 12.0149ZM41.6134 19.1581C40.9705 19.1939 40.399 18.7295 40.3276 18.0867C40.3633 18.7295 39.8633 19.2653 39.1847 19.3367C39.8633 19.2653 40.4347 19.7653 40.4705 20.4082C40.4705 19.7653 40.9705 19.1939 41.6134 19.1581ZM33.1486 26.1228C32.9343 26.1228 32.7558 25.9799 32.7201 25.7299C32.7201 25.9799 32.5772 26.1585 32.3272 26.1585C32.5772 26.1585 32.7558 26.3371 32.7915 26.5514C32.7558 26.3371 32.9343 26.1228 33.1486 26.1228ZM25.934 30.123C25.7197 30.123 25.5411 29.9801 25.5054 29.7301C25.5054 29.9801 25.3268 30.1587 25.1125 30.1944C25.3268 30.1587 25.5411 30.3373 25.5411 30.5516C25.5411 30.3373 25.7197 30.123 25.934 30.123ZM33.863 16.408C33.4701 16.408 33.1129 16.1223 33.0772 15.7294C33.0772 16.1223 32.7915 16.4794 32.3986 16.4794C32.7915 16.4794 33.1486 16.7652 33.1844 17.158C33.1486 16.7652 33.4701 16.408 33.863 16.408ZM40.0419 30.7659C39.7561 30.8016 39.5061 30.5873 39.4704 30.3016C39.4704 30.5873 39.2561 30.8373 38.9704 30.8373C39.2561 30.8373 39.5061 31.0516 39.5418 31.3374C39.5418 31.0516 39.7561 30.8016 40.0419 30.7659ZM26.7554 37.4091C26.2554 37.4448 25.7911 37.0519 25.7554 36.5876C25.7911 37.0877 25.3982 37.5163 24.8982 37.5163C25.3982 37.5163 25.8268 37.8734 25.8625 38.3734C25.8625 37.8734 26.2554 37.4448 26.7554 37.4091ZM58.9715 21.1582C57.9357 21.2297 57.0785 20.4796 56.9713 19.4796C57.0071 20.4796 56.2213 21.3368 55.2213 21.4083C56.2213 21.3368 57.1142 22.0869 57.2214 23.1226C57.1856 22.0869 57.9357 21.2297 58.9715 21.1582ZM117.403 44.6952C117.403 44.9095 117.225 45.0881 117.01 45.1238C117.225 45.0881 117.439 45.2667 117.439 45.481C117.439 45.2667 117.617 45.0881 117.832 45.0524C117.617 45.0881 117.403 44.9095 117.403 44.6952ZM47.1137 55.9458C47.1137 61.7318 51.7925 66.4106 57.5785 66.4106C63.3645 66.4106 68.0434 61.7318 68.0434 55.9458C68.0434 50.1598 63.3645 45.481 57.5785 45.481C51.7925 45.481 47.1137 50.1598 47.1137 55.9458ZM57.6142 39.5878C57.6142 41.7308 59.3643 43.4809 61.543 43.4809C63.686 43.4809 65.4361 41.7308 65.4361 39.5878C65.4361 37.4448 63.686 35.6947 61.543 35.6947C59.3643 35.6947 57.6142 37.4448 57.6142 39.5878ZM64.5789 38.2306C64.4003 37.9449 64.1503 37.7663 63.936 37.802C63.9598 37.7544 63.9955 37.7187 64.0431 37.6948C64.2932 37.552 64.6503 37.7306 64.8646 38.0877C65.0789 38.4449 65.0075 38.8735 64.7575 39.0163C64.686 39.0401 64.6027 39.0521 64.5075 39.0521C64.7218 38.9092 64.7218 38.552 64.5789 38.2306ZM60.3287 41.4093C60.3287 41.6593 60.2572 41.8736 60.0786 42.0165C59.7572 42.3022 59.1857 42.1236 58.7929 41.6593C58.4 41.1593 58.3643 40.5878 58.7214 40.3021C58.9 40.1593 59.1857 40.1235 59.4715 40.2664C59.2929 40.2307 59.15 40.2664 59.0429 40.3378C58.7929 40.5521 58.7929 41.0522 59.1143 41.4093C59.4 41.8022 59.8644 41.9451 60.1501 41.7308C60.2453 41.6355 60.3049 41.5284 60.3287 41.4093ZM62.2573 42.4094C62.5073 42.3379 62.6502 42.1951 62.6859 42.0165C62.7097 42.0641 62.7217 42.0998 62.7217 42.1236C62.7931 42.3379 62.5788 42.5522 62.2931 42.6594C62.0073 42.7308 61.7216 42.6237 61.6859 42.4094C61.6621 42.3379 61.6621 42.2784 61.6859 42.2308C61.7573 42.4094 62.0073 42.4808 62.2573 42.4094ZM72.6865 81.09C75.258 78.2684 75.4366 78.5184 79.044 79.2328L76.9367 79.8399C74.8652 80.9114 75.008 81.09 72.6865 81.09Z" fill="#0F053C"/>
<path fill-rule="evenodd" clip-rule="evenodd" d="M55.9356 73.0896C52.7926 72.6967 49.6138 72.3038 46.5065 71.8038C45.5541 71.6609 44.6016 71.5061 43.6492 71.3395C39.0061 70.4823 36.9703 67.0893 35.9702 62.8747C35.2202 59.696 35.0773 56.053 34.8273 52.6956C34.613 48.9812 34.1844 45.4452 34.4701 42.4094L35.2202 39.3378C39.5061 34.5518 44.8278 30.7659 50.971 28.9444C51.3758 28.8015 51.7925 28.6825 52.2211 28.5872C42.4706 29.873 38.7918 32.9089 32.7915 38.6949L31.3628 43.3023C33.1844 42.0879 33.3987 41.4093 34.0773 39.3735C33.8987 41.4093 33.7915 42.7665 32.0772 43.9452L30.9342 44.7309L21.648 51.5527C19.3622 53.2314 20.648 56.1958 21.1123 58.4816L21.1837 58.6959C19.3265 57.6245 17.1835 57.053 14.6477 57.2316C23.0053 59.4817 25.7554 65.6606 30.2199 72.4467C34.3273 81.6972 33.0772 85.0188 32.2557 94.6621C33.4344 98.0552 34.9345 102.091 35.6488 103.555C38.4346 109.377 40.9348 112.842 44.2207 116.413C39.1132 113.163 35.8988 110.092 33.7201 106.77C32.1843 104.306 29.9342 100.627 28.2198 98.3409C26.0054 99.5196 23.8267 99.0552 17.755 99.1267C11.3975 92.7692 8.07588 89.3761 6.00434 80.3757C4.18282 72.5895 5.18288 65.1249 4.32569 57.2316C2.64703 41.8022 3.78994 26.0871 20.6123 17.6938C13.1833 22.7298 9.68311 29.2658 8.54019 36.3733C7.82587 41.0522 8.64735 50.9098 11.6475 54.6957C9.75455 47.4096 8.96878 39.9807 10.7903 33.3017C13.8619 28.6229 18.7193 24.7656 25.7554 22.194C19.6836 24.1227 16.9335 24.9442 12.8261 28.0515C14.3619 25.2656 16.4692 22.6583 19.3265 20.3725C20.4337 19.4439 21.6123 18.5867 22.7552 17.6938C25.4339 16.658 28.4698 15.8722 31.8986 15.2651C39.2204 10.7291 50.8639 2.22866 58.2571 2.76441C68.8291 2.69297 83.2227 10.0148 92.7232 17.7652C95.2948 19.8725 97.5092 22.0154 99.1879 24.0155C97.9021 23.2655 95.2234 22.8012 92.3304 22.4083C93.759 23.5512 95.0091 24.5156 96.0806 25.2299L107.01 25.1585C114.617 25.087 118.332 29.2658 119.153 36.3019L121.76 59.6603C122.403 65.4106 119.225 67.3393 114.439 69.6608C110.438 73.4825 107.224 73.5896 105.617 74.0539L103.688 87.3046L100.617 109.163C100.081 112.306 97.2949 117.985 90.6874 120.271C95.0805 116.806 97.6164 113.949 98.1164 108.127L100.402 86.8046L101.224 79.4828C101.474 77.0183 101.224 76.8041 100.545 74.4468L88.973 74.8397C89.4374 77.6255 89.9017 78.8042 89.1873 81.7329C89.2231 79.2328 87.2587 75.4468 86.2229 73.0539C85.6514 71.4466 84.9014 71.018 83.5442 70.0894C84.6514 69.2679 85.7943 69.2322 87.0801 69.1608L102.902 68.4465C108.224 68.1965 113.153 67.625 118.153 65.3392C114.403 66.4821 108.26 66.4821 102.867 66.7321C86.5086 67.4107 54.7212 68.4108 54.6141 68.4108C54.114 68.3155 53.6259 68.2322 53.1497 68.1607C45.0064 66.6249 44.8278 57.2316 44.3278 49.4455C43.9349 43.3737 43.0777 37.7663 45.6136 34.0875C40.5419 37.5163 41.7205 44.1595 42.1848 51.5527C42.4706 55.8029 42.6492 60.5175 44.0778 64.1605C45.2564 67.2321 47.2923 69.5537 51.0067 70.2323C51.4353 70.3275 51.8639 70.4109 52.2925 70.4823C52.6973 70.5537 53.1021 70.6252 53.5069 70.6966L82.3298 69.3751C80.1511 70.1608 78.0082 71.7324 76.0795 72.9824C73.0793 74.2682 71.5435 75.1968 68.1862 75.554C59.0429 76.5183 51.0424 77.0898 41.3276 75.9469C40.1371 75.804 39.0418 75.6254 38.0418 75.4111L33.3272 75.5897C32.8986 74.3039 32.3629 73.0181 31.7914 71.7324L31.7557 71.6252L31.6486 71.4823C29.0413 67.5179 26.5411 62.8033 22.9338 59.8746L22.5052 57.8388C22.1123 55.3743 22.0052 54.6243 24.0053 53.0885L33.3272 45.7667C33.3272 48.2311 33.613 50.9455 33.7915 53.7314C33.9701 56.9459 34.1487 60.4103 34.7916 63.4819C35.7559 67.875 37.7917 71.5181 42.5777 72.3753L43.0063 72.4467C46.7208 73.1253 52.0425 72.9824 55.9356 73.0896ZM86.0086 80.84C84.6871 80.8757 84.5442 80.6614 83.3299 80.1614C83.7228 79.1613 83.9014 78.9827 84.58 78.0898C85.4371 79.2685 85.5086 79.4828 86.0086 80.84ZM46.8279 118.842C52.6497 120.521 58.8643 122.842 64.8646 123.414L77.3296 124.628L63.436 125.878C57.1499 124.199 52.6497 121.664 46.8279 118.842ZM15.6477 69.5537C18.6479 76.7326 24.7553 86.6617 21.1837 94.5907C25.4697 90.2691 24.291 88.519 23.791 83.3044C20.6123 80.8757 20.1122 77.947 19.1836 73.0181C18.755 70.768 17.6121 70.9109 15.6477 69.5537ZM61.4359 87.8404C58.7214 88.7333 58.3643 88.8404 56.0427 90.5548C58.6143 87.1617 57.3642 87.2689 61.4359 87.8404ZM95.7948 90.9477C94.6876 89.3404 94.4733 89.1618 92.6518 87.8761C96.2234 88.8047 95.2591 88.3404 95.7948 90.9477ZM66.7219 96.5194C66.9005 96.5551 70.9364 101.341 70.9364 101.341L66.2933 98.3766C63.7931 96.3408 62.3288 93.1264 60.543 90.3405C63.4717 91.2691 63.936 91.2334 67.0433 91.2334L75.4366 90.1262C77.7939 90.4476 80.3654 91.5906 82.687 92.1977C76.901 91.5191 75.6866 91.4477 70.0077 92.5549L75.7581 94.305C82.7584 96.0908 85.1871 96.8408 89.866 90.4476C87.2944 90.5905 86.2586 90.8048 83.937 91.9834C86.0086 90.5548 86.6872 89.6976 89.1159 89.019L93.2947 89.6976L90.366 94.055C89.5802 98.7695 89.7231 104.02 84.9371 106.163C86.0443 105.056 86.2229 105.02 86.8658 103.591L83.3656 105.627C77.0796 104.663 76.7581 105.27 71.5078 101.698C76.901 104.591 81.2941 103.948 83.0799 104.02C85.33 102.877 86.7586 102.591 87.0444 100.234C86.1872 99.0195 86.1515 98.4123 84.7585 98.0195C85.1157 98.8052 85.4014 99.091 85.33 99.9482C78.0439 100.305 66.7933 96.5194 66.7219 96.5194ZM87.8658 110.592C85.08 110.806 83.9013 111.27 81.6155 112.163C79.8297 112.842 77.6867 112.163 75.7938 111.949C80.294 111.306 83.2227 108.556 87.8658 110.592ZM87.723 55.2672C90.616 58.7674 95.1519 60.8746 100.045 60.4818C107.153 59.9103 112.617 54.3029 113.296 47.4811C106.474 51.8384 95.2591 55.0886 87.723 55.2672ZM84.4728 47.2311C84.6157 48.9454 85.08 50.6241 85.7586 52.1242C89.7231 53.1957 96.4734 51.8742 100.295 50.6955C103.76 49.624 107.938 47.9097 110.867 45.8381C111.403 45.4452 112.403 44.6595 113.189 43.7666C112.01 36.3733 105.331 31.0516 97.7592 31.6588C89.7945 32.266 83.8299 39.2663 84.4728 47.2311ZM94.8305 27.0871C94.4376 27.1228 94.0805 26.8371 94.0448 26.4085C94.0448 26.8371 93.759 27.1586 93.3304 27.1943C93.759 27.1586 94.0805 27.48 94.1519 27.8729C94.1162 27.48 94.4376 27.1228 94.8305 27.0871ZM102.831 29.7301C103.474 29.6587 104.045 30.1587 104.117 30.8016C104.081 30.1587 104.581 29.5873 105.26 29.5515C104.581 29.5873 104.01 29.1229 103.974 28.4801C103.974 29.1229 103.474 29.6587 102.831 29.7301ZM113.367 34.6232C112.76 34.659 114.082 34.659 114.367 34.8375C114.832 35.1233 115.189 35.6233 115.224 36.1948C115.224 35.7304 115.367 35.3018 115.653 34.9447C115.974 34.6232 117.51 34.3018 116.867 34.3732C116.224 34.4089 115.367 33.9446 115.082 33.1946C115.034 33.0755 115.01 32.9327 115.01 32.766C115.01 32.9089 114.998 33.0517 114.974 33.1946C114.796 33.9446 113.939 34.5518 113.367 34.6232ZM82.6156 54.0171C83.9371 54.3743 85.6514 54.5529 87.6515 54.5172C95.5448 54.3743 106.188 51.1241 112.831 46.8739C116.546 44.5166 118.582 42.0879 118.01 40.2307C117.51 38.6235 115.117 37.7306 111.581 37.6234C111.962 38.1949 112.308 38.802 112.617 39.4449C113.76 39.8378 114.546 40.4093 114.76 41.2307C115.689 44.1595 109.296 48.7311 100.509 51.4098C91.7589 54.0886 83.9013 53.8386 83.0084 50.9098C82.7584 50.0884 83.0799 49.1597 83.7942 48.1954C83.7466 47.8859 83.7109 47.5763 83.6871 47.2668C83.6632 46.8858 83.6513 46.5048 83.6513 46.1239C82.7941 46.7429 82.0679 47.3501 81.4726 47.9454C79.3297 50.1241 78.7939 52.9456 82.6156 54.0171ZM83.6871 43.4451C83.3656 43.4451 83.0799 43.1951 83.0442 42.8737C83.0442 43.1951 82.7942 43.4809 82.437 43.5166C82.7942 43.4809 83.0799 43.7309 83.1156 44.088C83.1156 43.7309 83.3656 43.4451 83.6871 43.4451ZM89.3302 61.7318C88.9373 61.7318 88.5802 61.4461 88.5444 61.0532C88.5802 61.4461 88.2587 61.8033 87.8658 61.8033C88.2587 61.8033 88.6159 62.089 88.6516 62.4819C88.6159 62.089 88.9373 61.7318 89.3302 61.7318ZM56.4713 12.1221C56.257 12.1578 56.0784 11.9792 56.0427 11.7649C56.0427 11.9792 55.8999 12.1935 55.6498 12.1935C55.8999 12.1935 56.0784 12.3364 56.1142 12.5506C56.1142 12.3364 56.257 12.1578 56.4713 12.1221ZM49.2924 16.158C49.0423 16.158 48.8638 15.9794 48.828 15.7651C48.828 15.9794 48.6852 16.1937 48.4352 16.1937C48.6852 16.1937 48.8638 16.3723 48.8995 16.5866C48.8638 16.3723 49.0423 16.158 49.2924 16.158ZM68.0076 8.19327C67.6148 8.22899 67.2576 7.94326 67.2219 7.55038C67.2576 7.94326 66.9362 8.2647 66.5433 8.30042C66.9362 8.2647 67.2933 8.58615 67.329 8.97903C67.2933 8.58615 67.6148 8.22899 68.0076 8.19327ZM63.3645 16.8009C63.0788 16.8009 62.8288 16.5866 62.7931 16.3008C62.7931 16.5866 62.5788 16.8366 62.2931 16.8723C62.5788 16.8366 62.8288 17.0509 62.8645 17.3366C62.8645 17.0509 63.0788 16.8009 63.3645 16.8009ZM53.114 12.0149C52.614 12.0506 52.1497 11.6935 52.1139 11.1934C52.1497 11.6935 51.7568 12.1221 51.2568 12.1578C51.7568 12.1221 52.1854 12.4792 52.2211 12.9792C52.2211 12.4792 52.614 12.0506 53.114 12.0149ZM41.6134 19.1581C40.9705 19.1939 40.399 18.7295 40.3276 18.0867C40.3633 18.7295 39.8633 19.2653 39.1847 19.3367C39.8633 19.2653 40.4347 19.7653 40.4705 20.4082C40.4705 19.7653 40.9705 19.1939 41.6134 19.1581ZM33.1486 26.1228C32.9343 26.1228 32.7558 25.9799 32.7201 25.7299C32.7201 25.9799 32.5772 26.1585 32.3272 26.1585C32.5772 26.1585 32.7558 26.3371 32.7915 26.5514C32.7558 26.3371 32.9343 26.1228 33.1486 26.1228ZM25.934 30.123C25.7197 30.123 25.5411 29.9801 25.5054 29.7301C25.5054 29.9801 25.3268 30.1587 25.1125 30.1944C25.3268 30.1587 25.5411 30.3373 25.5411 30.5516C25.5411 30.3373 25.7197 30.123 25.934 30.123ZM33.863 16.408C33.4701 16.408 33.1129 16.1223 33.0772 15.7294C33.0772 16.1223 32.7915 16.4794 32.3986 16.4794C32.7915 16.4794 33.1486 16.7652 33.1844 17.158C33.1486 16.7652 33.4701 16.408 33.863 16.408ZM40.0419 30.7659C39.7561 30.8016 39.5061 30.5873 39.4704 30.3016C39.4704 30.5873 39.2561 30.8373 38.9704 30.8373C39.2561 30.8373 39.5061 31.0516 39.5418 31.3374C39.5418 31.0516 39.7561 30.8016 40.0419 30.7659ZM26.7554 37.4091C26.2554 37.4448 25.7911 37.0519 25.7554 36.5876C25.7911 37.0877 25.3982 37.5163 24.8982 37.5163C25.3982 37.5163 25.8268 37.8734 25.8625 38.3734C25.8625 37.8734 26.2554 37.4448 26.7554 37.4091ZM58.9715 21.1582C57.9357 21.2297 57.0785 20.4796 56.9713 19.4796C57.0071 20.4796 56.2213 21.3368 55.2213 21.4083C56.2213 21.3368 57.1142 22.0869 57.2214 23.1226C57.1856 22.0869 57.9357 21.2297 58.9715 21.1582ZM117.403 44.6952C117.403 44.9095 117.225 45.0881 117.01 45.1238C117.225 45.0881 117.439 45.2667 117.439 45.481C117.439 45.2667 117.617 45.0881 117.832 45.0524C117.617 45.0881 117.403 44.9095 117.403 44.6952ZM47.1137 55.9458C47.1137 61.7318 51.7925 66.4106 57.5785 66.4106C63.3645 66.4106 68.0434 61.7318 68.0434 55.9458C68.0434 50.1598 63.3645 45.481 57.5785 45.481C51.7925 45.481 47.1137 50.1598 47.1137 55.9458ZM57.6142 39.5878C57.6142 41.7308 59.3643 43.4809 61.543 43.4809C63.686 43.4809 65.4361 41.7308 65.4361 39.5878C65.4361 37.4448 63.686 35.6947 61.543 35.6947C59.3643 35.6947 57.6142 37.4448 57.6142 39.5878ZM64.5789 38.2306C64.4003 37.9449 64.1503 37.7663 63.936 37.802C63.9598 37.7544 63.9955 37.7187 64.0431 37.6948C64.2932 37.552 64.6503 37.7306 64.8646 38.0877C65.0789 38.4449 65.0075 38.8735 64.7575 39.0163C64.686 39.0401 64.6027 39.0521 64.5075 39.0521C64.7218 38.9092 64.7218 38.552 64.5789 38.2306ZM60.3287 41.4093C60.3287 41.6593 60.2572 41.8736 60.0786 42.0165C59.7572 42.3022 59.1857 42.1236 58.7929 41.6593C58.4 41.1593 58.3643 40.5878 58.7214 40.3021C58.9 40.1593 59.1857 40.1235 59.4715 40.2664C59.2929 40.2307 59.15 40.2664 59.0429 40.3378C58.7929 40.5521 58.7929 41.0522 59.1143 41.4093C59.4 41.8022 59.8644 41.9451 60.1501 41.7308C60.2453 41.6355 60.3049 41.5284 60.3287 41.4093ZM62.2573 42.4094C62.5073 42.3379 62.6502 42.1951 62.6859 42.0165C62.7097 42.0641 62.7217 42.0998 62.7217 42.1236C62.7931 42.3379 62.5788 42.5522 62.2931 42.6594C62.0073 42.7308 61.7216 42.6237 61.6859 42.4094C61.6621 42.3379 61.6621 42.2784 61.6859 42.2308C61.7573 42.4094 62.0073 42.4808 62.2573 42.4094ZM72.6865 81.09C75.258 78.2684 75.4366 78.5184 79.044 79.2328L76.9367 79.8399C74.8652 80.9114 75.008 81.09 72.6865 81.09Z" fill="url(#paint0_linear_198_1531)"/>
<path fill-rule="evenodd" clip-rule="evenodd" d="M55.9356 73.0896C52.7926 72.6967 49.6138 72.3038 46.5065 71.8038C45.5541 71.6609 44.6016 71.5061 43.6492 71.3395C39.0061 70.4823 36.9703 67.0893 35.9702 62.8747C35.2202 59.696 35.0773 56.053 34.8273 52.6956C34.613 48.9812 34.1844 45.4452 34.4701 42.4094L35.2202 39.3378C39.5061 34.5518 44.8278 30.7659 50.971 28.9444C51.3758 28.8015 51.7925 28.6825 52.2211 28.5872C42.4706 29.873 38.7918 32.9089 32.7915 38.6949L31.3628 43.3023C33.1844 42.0879 33.3987 41.4093 34.0773 39.3735C33.8987 41.4093 33.7915 42.7665 32.0772 43.9452L30.9342 44.7309L21.648 51.5527C19.3622 53.2314 20.648 56.1958 21.1123 58.4816L21.1837 58.6959C19.3265 57.6245 17.1835 57.053 14.6477 57.2316C23.0053 59.4817 25.7554 65.6606 30.2199 72.4467C34.3273 81.6972 33.0772 85.0188 32.2557 94.6621C33.4344 98.0552 34.9345 102.091 35.6488 103.555C38.4346 109.377 40.9348 112.842 44.2207 116.413C39.1132 113.163 35.8988 110.092 33.7201 106.77C32.1843 104.306 29.9342 100.627 28.2198 98.3409C26.0054 99.5196 23.8267 99.0552 17.755 99.1267C11.3975 92.7692 8.07588 89.3761 6.00434 80.3757C4.18282 72.5895 5.18288 65.1249 4.32569 57.2316C2.64703 41.8022 3.78994 26.0871 20.6123 17.6938C13.1833 22.7298 9.68311 29.2658 8.54019 36.3733C7.82587 41.0522 8.64735 50.9098 11.6475 54.6957C9.75455 47.4096 8.96878 39.9807 10.7903 33.3017C13.8619 28.6229 18.7193 24.7656 25.7554 22.194C19.6836 24.1227 16.9335 24.9442 12.8261 28.0515C14.3619 25.2656 16.4692 22.6583 19.3265 20.3725C20.4337 19.4439 21.6123 18.5867 22.7552 17.6938C25.4339 16.658 28.4698 15.8722 31.8986 15.2651C39.2204 10.7291 50.8639 2.22866 58.2571 2.76441C68.8291 2.69297 83.2227 10.0148 92.7232 17.7652C95.2948 19.8725 97.5092 22.0154 99.1879 24.0155C97.9021 23.2655 95.2234 22.8012 92.3304 22.4083C93.759 23.5512 95.0091 24.5156 96.0806 25.2299L107.01 25.1585C114.617 25.087 118.332 29.2658 119.153 36.3019L121.76 59.6603C122.403 65.4106 119.225 67.3393 114.439 69.6608C110.438 73.4825 107.224 73.5896 105.617 74.0539L103.688 87.3046L100.617 109.163C100.081 112.306 97.2949 117.985 90.6874 120.271C95.0805 116.806 97.6164 113.949 98.1164 108.127L100.402 86.8046L101.224 79.4828C101.474 77.0183 101.224 76.8041 100.545 74.4468L88.973 74.8397C89.4374 77.6255 89.9017 78.8042 89.1873 81.7329C89.2231 79.2328 87.2587 75.4468 86.2229 73.0539C85.6514 71.4466 84.9014 71.018 83.5442 70.0894C84.6514 69.2679 85.7943 69.2322 87.0801 69.1608L102.902 68.4465C108.224 68.1965 113.153 67.625 118.153 65.3392C114.403 66.4821 108.26 66.4821 102.867 66.7321C86.5086 67.4107 54.7212 68.4108 54.6141 68.4108C54.114 68.3155 53.6259 68.2322 53.1497 68.1607C45.0064 66.6249 44.8278 57.2316 44.3278 49.4455C43.9349 43.3737 43.0777 37.7663 45.6136 34.0875C40.5419 37.5163 41.7205 44.1595 42.1848 51.5527C42.4706 55.8029 42.6492 60.5175 44.0778 64.1605C45.2564 67.2321 47.2923 69.5537 51.0067 70.2323C51.4353 70.3275 51.8639 70.4109 52.2925 70.4823C52.6973 70.5537 53.1021 70.6252 53.5069 70.6966L82.3298 69.3751C80.1511 70.1608 78.0082 71.7324 76.0795 72.9824C73.0793 74.2682 71.5435 75.1968 68.1862 75.554C59.0429 76.5183 51.0424 77.0898 41.3276 75.9469C40.1371 75.804 39.0418 75.6254 38.0418 75.4111L33.3272 75.5897C32.8986 74.3039 32.3629 73.0181 31.7914 71.7324L31.7557 71.6252L31.6486 71.4823C29.0413 67.5179 26.5411 62.8033 22.9338 59.8746L22.5052 57.8388C22.1123 55.3743 22.0052 54.6243 24.0053 53.0885L33.3272 45.7667C33.3272 48.2311 33.613 50.9455 33.7915 53.7314C33.9701 56.9459 34.1487 60.4103 34.7916 63.4819C35.7559 67.875 37.7917 71.5181 42.5777 72.3753L43.0063 72.4467C46.7208 73.1253 52.0425 72.9824 55.9356 73.0896ZM86.0086 80.84C84.6871 80.8757 84.5442 80.6614 83.3299 80.1614C83.7228 79.1613 83.9014 78.9827 84.58 78.0898C85.4371 79.2685 85.5086 79.4828 86.0086 80.84ZM46.8279 118.842C52.6497 120.521 58.8643 122.842 64.8646 123.414L77.3296 124.628L63.436 125.878C57.1499 124.199 52.6497 121.664 46.8279 118.842ZM15.6477 69.5537C18.6479 76.7326 24.7553 86.6617 21.1837 94.5907C25.4697 90.2691 24.291 88.519 23.791 83.3044C20.6123 80.8757 20.1122 77.947 19.1836 73.0181C18.755 70.768 17.6121 70.9109 15.6477 69.5537ZM61.4359 87.8404C58.7214 88.7333 58.3643 88.8404 56.0427 90.5548C58.6143 87.1617 57.3642 87.2689 61.4359 87.8404ZM95.7948 90.9477C94.6876 89.3404 94.4733 89.1618 92.6518 87.8761C96.2234 88.8047 95.2591 88.3404 95.7948 90.9477ZM66.7219 96.5194C66.9005 96.5551 70.9364 101.341 70.9364 101.341L66.2933 98.3766C63.7931 96.3408 62.3288 93.1264 60.543 90.3405C63.4717 91.2691 63.936 91.2334 67.0433 91.2334L75.4366 90.1262C77.7939 90.4476 80.3654 91.5906 82.687 92.1977C76.901 91.5191 75.6866 91.4477 70.0077 92.5549L75.7581 94.305C82.7584 96.0908 85.1871 96.8408 89.866 90.4476C87.2944 90.5905 86.2586 90.8048 83.937 91.9834C86.0086 90.5548 86.6872 89.6976 89.1159 89.019L93.2947 89.6976L90.366 94.055C89.5802 98.7695 89.7231 104.02 84.9371 106.163C86.0443 105.056 86.2229 105.02 86.8658 103.591L83.3656 105.627C77.0796 104.663 76.7581 105.27 71.5078 101.698C76.901 104.591 81.2941 103.948 83.0799 104.02C85.33 102.877 86.7586 102.591 87.0444 100.234C86.1872 99.0195 86.1515 98.4123 84.7585 98.0195C85.1157 98.8052 85.4014 99.091 85.33 99.9482C78.0439 100.305 66.7933 96.5194 66.7219 96.5194ZM87.8658 110.592C85.08 110.806 83.9013 111.27 81.6155 112.163C79.8297 112.842 77.6867 112.163 75.7938 111.949C80.294 111.306 83.2227 108.556 87.8658 110.592ZM87.723 55.2672C90.616 58.7674 95.1519 60.8746 100.045 60.4818C107.153 59.9103 112.617 54.3029 113.296 47.4811C106.474 51.8384 95.2591 55.0886 87.723 55.2672ZM84.4728 47.2311C84.6157 48.9454 85.08 50.6241 85.7586 52.1242C89.7231 53.1957 96.4734 51.8742 100.295 50.6955C103.76 49.624 107.938 47.9097 110.867 45.8381C111.403 45.4452 112.403 44.6595 113.189 43.7666C112.01 36.3733 105.331 31.0516 97.7592 31.6588C89.7945 32.266 83.8299 39.2663 84.4728 47.2311ZM94.8305 27.0871C94.4376 27.1228 94.0805 26.8371 94.0448 26.4085C94.0448 26.8371 93.759 27.1586 93.3304 27.1943C93.759 27.1586 94.0805 27.48 94.1519 27.8729C94.1162 27.48 94.4376 27.1228 94.8305 27.0871ZM102.831 29.7301C103.474 29.6587 104.045 30.1587 104.117 30.8016C104.081 30.1587 104.581 29.5873 105.26 29.5515C104.581 29.5873 104.01 29.1229 103.974 28.4801C103.974 29.1229 103.474 29.6587 102.831 29.7301ZM113.367 34.6232C112.76 34.659 114.082 34.659 114.367 34.8375C114.832 35.1233 115.189 35.6233 115.224 36.1948C115.224 35.7304 115.367 35.3018 115.653 34.9447C115.974 34.6232 117.51 34.3018 116.867 34.3732C116.224 34.4089 115.367 33.9446 115.082 33.1946C115.034 33.0755 115.01 32.9327 115.01 32.766C115.01 32.9089 114.998 33.0517 114.974 33.1946C114.796 33.9446 113.939 34.5518 113.367 34.6232ZM82.6156 54.0171C83.9371 54.3743 85.6514 54.5529 87.6515 54.5172C95.5448 54.3743 106.188 51.1241 112.831 46.8739C116.546 44.5166 118.582 42.0879 118.01 40.2307C117.51 38.6235 115.117 37.7306 111.581 37.6234C111.962 38.1949 112.308 38.802 112.617 39.4449C113.76 39.8378 114.546 40.4093 114.76 41.2307C115.689 44.1595 109.296 48.7311 100.509 51.4098C91.7589 54.0886 83.9013 53.8386 83.0084 50.9098C82.7584 50.0884 83.0799 49.1597 83.7942 48.1954C83.7466 47.8859 83.7109 47.5763 83.6871 47.2668C83.6632 46.8858 83.6513 46.5048 83.6513 46.1239C82.7941 46.7429 82.0679 47.3501 81.4726 47.9454C79.3297 50.1241 78.7939 52.9456 82.6156 54.0171ZM83.6871 43.4451C83.3656 43.4451 83.0799 43.1951 83.0442 42.8737C83.0442 43.1951 82.7942 43.4809 82.437 43.5166C82.7942 43.4809 83.0799 43.7309 83.1156 44.088C83.1156 43.7309 83.3656 43.4451 83.6871 43.4451ZM89.3302 61.7318C88.9373 61.7318 88.5802 61.4461 88.5444 61.0532C88.5802 61.4461 88.2587 61.8033 87.8658 61.8033C88.2587 61.8033 88.6159 62.089 88.6516 62.4819C88.6159 62.089 88.9373 61.7318 89.3302 61.7318ZM56.4713 12.1221C56.257 12.1578 56.0784 11.9792 56.0427 11.7649C56.0427 11.9792 55.8999 12.1935 55.6498 12.1935C55.8999 12.1935 56.0784 12.3364 56.1142 12.5506C56.1142 12.3364 56.257 12.1578 56.4713 12.1221ZM49.2924 16.158C49.0423 16.158 48.8638 15.9794 48.828 15.7651C48.828 15.9794 48.6852 16.1937 48.4352 16.1937C48.6852 16.1937 48.8638 16.3723 48.8995 16.5866C48.8638 16.3723 49.0423 16.158 49.2924 16.158ZM68.0076 8.19327C67.6148 8.22899 67.2576 7.94326 67.2219 7.55038C67.2576 7.94326 66.9362 8.2647 66.5433 8.30042C66.9362 8.2647 67.2933 8.58615 67.329 8.97903C67.2933 8.58615 67.6148 8.22899 68.0076 8.19327ZM63.3645 16.8009C63.0788 16.8009 62.8288 16.5866 62.7931 16.3008C62.7931 16.5866 62.5788 16.8366 62.2931 16.8723C62.5788 16.8366 62.8288 17.0509 62.8645 17.3366C62.8645 17.0509 63.0788 16.8009 63.3645 16.8009ZM53.114 12.0149C52.614 12.0506 52.1497 11.6935 52.1139 11.1934C52.1497 11.6935 51.7568 12.1221 51.2568 12.1578C51.7568 12.1221 52.1854 12.4792 52.2211 12.9792C52.2211 12.4792 52.614 12.0506 53.114 12.0149ZM41.6134 19.1581C40.9705 19.1939 40.399 18.7295 40.3276 18.0867C40.3633 18.7295 39.8633 19.2653 39.1847 19.3367C39.8633 19.2653 40.4347 19.7653 40.4705 20.4082C40.4705 19.7653 40.9705 19.1939 41.6134 19.1581ZM33.1486 26.1228C32.9343 26.1228 32.7558 25.9799 32.7201 25.7299C32.7201 25.9799 32.5772 26.1585 32.3272 26.1585C32.5772 26.1585 32.7558 26.3371 32.7915 26.5514C32.7558 26.3371 32.9343 26.1228 33.1486 26.1228ZM25.934 30.123C25.7197 30.123 25.5411 29.9801 25.5054 29.7301C25.5054 29.9801 25.3268 30.1587 25.1125 30.1944C25.3268 30.1587 25.5411 30.3373 25.5411 30.5516C25.5411 30.3373 25.7197 30.123 25.934 30.123ZM33.863 16.408C33.4701 16.408 33.1129 16.1223 33.0772 15.7294C33.0772 16.1223 32.7915 16.4794 32.3986 16.4794C32.7915 16.4794 33.1486 16.7652 33.1844 17.158C33.1486 16.7652 33.4701 16.408 33.863 16.408ZM40.0419 30.7659C39.7561 30.8016 39.5061 30.5873 39.4704 30.3016C39.4704 30.5873 39.2561 30.8373 38.9704 30.8373C39.2561 30.8373 39.5061 31.0516 39.5418 31.3374C39.5418 31.0516 39.7561 30.8016 40.0419 30.7659ZM26.7554 37.4091C26.2554 37.4448 25.7911 37.0519 25.7554 36.5876C25.7911 37.0877 25.3982 37.5163 24.8982 37.5163C25.3982 37.5163 25.8268 37.8734 25.8625 38.3734C25.8625 37.8734 26.2554 37.4448 26.7554 37.4091ZM58.9715 21.1582C57.9357 21.2297 57.0785 20.4796 56.9713 19.4796C57.0071 20.4796 56.2213 21.3368 55.2213 21.4083C56.2213 21.3368 57.1142 22.0869 57.2214 23.1226C57.1856 22.0869 57.9357 21.2297 58.9715 21.1582ZM117.403 44.6952C117.403 44.9095 117.225 45.0881 117.01 45.1238C117.225 45.0881 117.439 45.2667 117.439 45.481C117.439 45.2667 117.617 45.0881 117.832 45.0524C117.617 45.0881 117.403 44.9095 117.403 44.6952ZM47.1137 55.9458C47.1137 61.7318 51.7925 66.4106 57.5785 66.4106C63.3645 66.4106 68.0434 61.7318 68.0434 55.9458C68.0434 50.1598 63.3645 45.481 57.5785 45.481C51.7925 45.481 47.1137 50.1598 47.1137 55.9458ZM57.6142 39.5878C57.6142 41.7308 59.3643 43.4809 61.543 43.4809C63.686 43.4809 65.4361 41.7308 65.4361 39.5878C65.4361 37.4448 63.686 35.6947 61.543 35.6947C59.3643 35.6947 57.6142 37.4448 57.6142 39.5878ZM64.5789 38.2306C64.4003 37.9449 64.1503 37.7663 63.936 37.802C63.9598 37.7544 63.9955 37.7187 64.0431 37.6948C64.2932 37.552 64.6503 37.7306 64.8646 38.0877C65.0789 38.4449 65.0075 38.8735 64.7575 39.0163C64.686 39.0401 64.6027 39.0521 64.5075 39.0521C64.7218 38.9092 64.7218 38.552 64.5789 38.2306ZM60.3287 41.4093C60.3287 41.6593 60.2572 41.8736 60.0786 42.0165C59.7572 42.3022 59.1857 42.1236 58.7929 41.6593C58.4 41.1593 58.3643 40.5878 58.7214 40.3021C58.9 40.1593 59.1857 40.1235 59.4715 40.2664C59.2929 40.2307 59.15 40.2664 59.0429 40.3378C58.7929 40.5521 58.7929 41.0522 59.1143 41.4093C59.4 41.8022 59.8644 41.9451 60.1501 41.7308C60.2453 41.6355 60.3049 41.5284 60.3287 41.4093ZM62.2573 42.4094C62.5073 42.3379 62.6502 42.1951 62.6859 42.0165C62.7097 42.0641 62.7217 42.0998 62.7217 42.1236C62.7931 42.3379 62.5788 42.5522 62.2931 42.6594C62.0073 42.7308 61.7216 42.6237 61.6859 42.4094C61.6621 42.3379 61.6621 42.2784 61.6859 42.2308C61.7573 42.4094 62.0073 42.4808 62.2573 42.4094ZM72.6865 81.09C75.258 78.2684 75.4366 78.5184 79.044 79.2328L76.9367 79.8399C74.8652 80.9114 75.008 81.09 72.6865 81.09Z" fill="url(#paint1_linear_198_1531)"/>
<path d="M49.3984 55.946C49.3984 56.7675 49.5413 57.589 49.7556 58.339C50.077 56.5532 50.1842 56.0532 50.9342 54.4102C54.4344 54.6245 55.2559 55.1603 58.0775 52.6601C62.4349 49.8743 65.9708 53.5173 65.3636 58.3747C65.6136 57.6247 65.7207 56.8032 65.7207 55.946C65.7207 51.4458 62.0777 47.8027 57.5774 47.8027C53.0772 47.8027 49.3984 51.4458 49.3984 55.946Z" fill="#FBDF11"/>
<path d="M100.152 50.1609C103.08 49.268 106.509 47.8393 109.045 46.0178C109.759 45.5177 110.474 44.9463 111.045 44.2677L111.081 44.1962V44.0891C110.617 41.1961 109.117 38.5531 106.902 36.6601C104.402 34.5529 101.188 33.5171 97.9016 33.7671C94.6515 34.0171 91.6156 35.5529 89.5083 38.0531C87.3654 40.5532 86.3296 43.7677 86.5796 47.0535C86.7225 48.4822 87.0796 49.9108 87.6868 51.2323L87.7225 51.3038L87.8297 51.3395C91.187 52.2681 96.8301 51.1609 100.152 50.1609ZM110.902 48.8394C104.973 52.0538 96.8659 54.4468 90.4727 55.0897C92.9728 57.447 96.4015 58.6256 99.866 58.3756C105.295 57.947 109.724 54.0182 110.902 48.8394Z" fill="#D11196"/>
<path d="M99.616 34.6955C99.0683 34.6717 98.5207 34.6836 97.973 34.7312C94.9729 34.9455 92.187 36.3742 90.2226 38.6957C88.2582 40.9815 87.3296 43.946 87.5439 46.9819C87.651 48.1962 87.9368 49.3748 88.4011 50.482C89.3297 50.6963 90.4369 50.7678 91.6155 50.7321C90.9726 50.7083 90.3774 50.6249 89.8297 50.482C89.3654 49.3748 89.0797 48.1962 88.9725 46.9819C88.7225 43.946 89.6869 40.9815 91.6513 38.6957C93.6156 36.3742 96.4015 34.9455 99.4017 34.7312L99.616 34.6955ZM101.223 53.8037C98.4373 54.6608 95.6158 55.3037 92.9013 55.7323C94.9014 56.9467 97.223 57.5539 99.616 57.411C97.723 57.2681 95.9372 56.6967 94.33 55.7323C96.5087 55.3752 98.8659 54.6966 101.223 53.8037Z" fill="#FF6600"/>
<path d="M84.3285 53.5531C81.5069 52.7673 81.3283 50.9101 82.7212 49.0528C82.8998 48.7314 83.0784 48.3742 83.2927 48.0885L83.2212 47.3028L83.1855 47.0527C82.7093 47.4337 82.2569 47.8385 81.8283 48.2671C79.7568 50.4101 79.5068 52.6602 82.7212 53.5531C84.2927 53.9817 86.0428 54.0888 87.6501 54.0531C87.7215 54.0531 87.7929 54.0531 87.8644 54.0531C86.6857 54.0174 85.4357 53.8745 84.3285 53.5531Z" fill="#FF6600"/>
<path d="M48.5781 55.9465C48.5781 60.911 52.614 64.9469 57.5786 64.9469C62.5431 64.9469 66.5791 60.911 66.5791 55.9465C66.5791 55.8274 66.5672 55.7202 66.5434 55.625C66.3648 60.411 62.436 64.2683 57.5786 64.2683C52.7212 64.2683 48.7567 60.411 48.5781 55.625C48.5781 55.7202 48.5781 55.8274 48.5781 55.9465Z" fill="white"/>
<path d="M60.6499 42.5896C60.7452 42.6134 60.8404 42.6372 60.9357 42.6611C60.9357 42.6372 60.9357 42.6253 60.9357 42.6253C60.9119 42.5063 60.9 42.3753 60.9 42.2325C60.8285 42.3753 60.7452 42.4944 60.6499 42.5896ZM63.543 38.8037L63.8644 38.5894L62.6501 38.6966L62.4715 38.9466L63.543 38.8037ZM64.6502 39.9466C64.674 39.899 64.6859 39.8514 64.6859 39.8038C64.6144 39.8038 64.5311 39.8038 64.4359 39.8038L63.0072 39.6252L62.8644 39.7323L64.6502 39.9466ZM62.5072 39.9109L63.4715 41.8039L63.5072 41.911C63.5072 41.9348 63.5072 41.9586 63.5072 41.9824C63.5787 41.9348 63.6382 41.8753 63.6858 41.8039L62.5429 39.5537L62.5072 39.9109ZM61.8643 40.5895L62.0429 41.0181L62.1143 40.5895L61.9714 40.3038L61.8643 40.5895ZM61.0785 40.7681L61.1143 41.3038C61.1381 41.3991 61.1381 41.4943 61.1143 41.5896L61.4 40.911L61.3643 40.8038L61.0785 40.7681ZM60.3999 39.768L60.1856 40.5538L60.5428 40.5895L60.7214 39.9109L60.3999 39.768ZM58.4355 39.518C58.5546 39.4466 58.6617 39.399 58.757 39.3752C58.9356 37.8036 60.2571 36.5536 61.9 36.5536C62.3643 36.5536 62.8286 36.6607 63.2215 36.875C62.7572 36.5536 62.1857 36.375 61.5786 36.375C59.8285 36.375 58.4355 37.7679 58.4355 39.518Z" fill="#6AE1FF"/>
<defs>
<linearGradient id="paint0_linear_198_1531" x1="45.685" y1="180.202" x2="-23.783" y2="100.127" gradientUnits="userSpaceOnUse">
<stop stop-color="#AE0279"/>
<stop offset="1" stop-color="#0D4D8A" stop-opacity="0"/>
</linearGradient>
<linearGradient id="paint1_linear_198_1531" x1="89.1873" y1="-54.2743" x2="135.261" y2="15.1222" gradientUnits="userSpaceOnUse">
<stop stop-color="#0C8FD2"/>
<stop offset="1" stop-color="#0D4D8A" stop-opacity="0"/>
</linearGradient>
</defs>
</svg>
